<?xml version="1.0" encoding="UTF-8" standalone="no"?>
<!-- Created with Inkscape (http://www.inkscape.org/) -->

<svg
   width="620"
   height="210"
   viewBox="0 0 164.04184 55.562845"
   version="1.1"
   id="svg5"
   inkscape:version="1.2 (dc2aedaf03, 2022-05-15)"
   sodipodi:docname="di-service.svg"
   xmlns:inkscape="http://www.inkscape.org/namespaces/inkscape"
   xmlns:sodipodi="http://sodipodi.sourceforge.net/DTD/sodipodi-0.dtd"
   xmlns="http://www.w3.org/2000/svg"
   xmlns:svg="http://www.w3.org/2000/svg">
  <sodipodi:namedview
     id="namedview7"
     pagecolor="#ffffff"
     bordercolor="#666666"
     borderopacity="1.0"
     inkscape:showpageshadow="false"
     inkscape:pageopacity="0.0"
     inkscape:pagecheckerboard="0"
     inkscape:deskcolor="#d1d1d1"
     inkscape:document-units="mm"
     showgrid="false"
     showguides="false"
     inkscape:zoom="1.8101934"
     inkscape:cx="369.57377"
     inkscape:cy="94.465044"
     inkscape:window-width="3436"
     inkscape:window-height="1389"
     inkscape:window-x="0"
     inkscape:window-y="49"
     inkscape:window-maximized="1"
     inkscape:current-layer="layer1"
     showborder="true"
     borderlayer="false"
     shape-rendering="crispEdges">
    <sodipodi:guide
       position="-239.81616,140.3694"
       orientation="0,-1"
       id="guide295"
       inkscape:locked="false" />
    <sodipodi:guide
       position="18.802287,17.669442"
       orientation="-0.5,0.8660254"
       id="guide512"
       inkscape:locked="false"
       inkscape:label=""
       inkscape:color="rgb(0,134,229)" />
    <sodipodi:guide
       position="45.39145,21.769457"
       orientation="0.5,0.8660254"
       id="guide514"
       inkscape:locked="false"
       inkscape:label=""
       inkscape:color="rgb(0,134,229)" />
    <sodipodi:guide
       position="82.579058,47.269443"
       orientation="0,-1"
       id="guide1996"
       inkscape:locked="false" />
    <sodipodi:guide
       position="75.240995,23.869458"
       orientation="0,-1"
       id="guide1998"
       inkscape:locked="false" />
    <sodipodi:guide
       position="27.03729,7.6694455"
       orientation="0,-1"
       id="guide2030"
       inkscape:locked="false" />
  </sodipodi:namedview>
  <defs
     id="defs2">
    <inkscape:perspective
       sodipodi:type="inkscape:persp3d"
       inkscape:vp_x="34.165237 : -111.53738 : 1"
       inkscape:vp_y="0 : 1000.0125 : 0"
       inkscape:vp_z="244.16604 : -111.53738 : 1"
       inkscape:persp3d-origin="139.16557 : -161.03748 : 1"
       id="perspective2028" />
    <inkscape:perspective
       sodipodi:type="inkscape:persp3d"
       inkscape:vp_x="12.633143 : 7.2937791 : 0"
       inkscape:vp_y="-108.82865 : 62.832486 : 0"
       inkscape:vp_z="-2.6796808e-15 : 14.587619 : 0"
       inkscape:persp3d-origin="24.426644 : 32.362913 : 1"
       id="perspective67" />
  </defs>
  <g
     inkscape:label="Слой 1"
     inkscape:groupmode="layer"
     id="layer1">
    <g
       sodipodi:type="inkscape:box3d"
       id="g496"
       style="fill:#ac9d93;stroke-width:3.08409"
       inkscape:perspectiveID="#perspective67"
       inkscape:corner0="1.2172439 : -0.092658602 : 0 : 1"
       inkscape:corner7="0.42907837 : -0.18430605 : 0.79689596 : 1">
      <path
         sodipodi:type="inkscape:box3dside"
         id="path484"
         style="fill:#8686bf;fill-rule:evenodd;stroke:none;stroke-linejoin:round"
         inkscape:box3dsidetype="3"
         d="m 49.888003,20.143594 -9.957059,5.748705 9.973919,5.758437 9.95706,-5.748705 z"
         points="39.930944,25.892299 49.904863,31.650736 59.861923,25.902031 49.888003,20.143594 " />
      <path
         sodipodi:type="inkscape:box3dside"
         id="path486"
         style="fill:#353564;fill-rule:evenodd;stroke:none;stroke-linejoin:round"
         inkscape:box3dsidetype="6"
         d="m 49.888003,20.143594 9.97392,5.758437 V 14.277217 l -9.97392,-5.7584375 z"
         points="59.861923,25.902031 59.861923,14.277217 49.888003,8.5187795 49.888003,20.143594 " />
      <path
         sodipodi:type="inkscape:box3dside"
         id="path488"
         style="fill:#4d4d9f;fill-rule:evenodd;stroke:none;stroke-linejoin:round"
         inkscape:box3dsidetype="5"
         d="m 49.888003,20.143594 -9.957059,5.748705 0,-11.624814 9.957059,-5.7487055 z"
         points="39.930944,25.892299 39.930944,14.267485 49.888003,8.5187795 49.888003,20.143594 " />
      <path
         sodipodi:type="inkscape:box3dside"
         id="path490"
         style="fill:#009200;fill-opacity:1;fill-rule:evenodd;stroke:none;stroke-linejoin:round"
         inkscape:box3dsidetype="13"
         d="m 59.861923,25.902031 -9.95706,5.748705 0,-11.624814 9.95706,-5.748705 z"
         points="49.904863,31.650736 49.904863,20.025922 59.861923,14.277217 59.861923,25.902031 " />
      <path
         sodipodi:type="inkscape:box3dside"
         id="path492"
         style="fill:#00a400;fill-opacity:1;fill-rule:evenodd;stroke:none;stroke-linejoin:round"
         inkscape:box3dsidetype="14"
         d="m 39.930944,25.892299 9.973919,5.758437 0,-11.624814 -9.973919,-5.758437 z"
         points="49.904863,31.650736 49.904863,20.025922 39.930944,14.267485 39.930944,25.892299 " />
      <path
         sodipodi:type="inkscape:box3dside"
         id="path494"
         style="fill:#00a900;fill-opacity:1;fill-rule:evenodd;stroke:none;stroke-linejoin:round"
         inkscape:box3dsidetype="11"
         d="m 49.888003,8.5187795 -9.957059,5.7487055 9.973919,5.758437 9.95706,-5.748705 z"
         points="39.930944,14.267485 49.904863,20.025922 59.861923,14.277217 49.888003,8.5187795 " />
    </g>
    <g
       sodipodi:type="inkscape:box3d"
       id="g69"
       style="fill:#ac9d93;stroke-width:3.08409"
       inkscape:perspectiveID="#perspective67"
       inkscape:corner0="0.090883854 : 0.036152075 : 0 : 1"
       inkscape:corner7="-0.69728163 : -0.055495381 : 0.79689596 : 1">
      <path
         sodipodi:type="inkscape:box3dside"
         id="path75"
         style="fill:#8686bf;fill-rule:evenodd;stroke:none;stroke-linejoin:round"
         inkscape:box3dsidetype="3"
         d="m 21.640098,20.26552 -9.957059,5.748705 9.97392,5.758438 9.957059,-5.748705 z"
         points="11.683039,26.014225 21.656959,31.772663 31.614018,26.023958 21.640098,20.26552 " />
      <path
         sodipodi:type="inkscape:box3dside"
         id="path71"
         style="fill:#353564;fill-rule:evenodd;stroke:none;stroke-linejoin:round"
         inkscape:box3dsidetype="6"
         d="m 21.640098,20.26552 9.97392,5.758438 0,-11.624815 -9.97392,-5.7584371 z"
         points="31.614018,26.023958 31.614018,14.399143 21.640098,8.6407059 21.640098,20.26552 " />
      <path
         sodipodi:type="inkscape:box3dside"
         id="path73"
         style="fill:#4d4d9f;fill-rule:evenodd;stroke:none;stroke-linejoin:round"
         inkscape:box3dsidetype="5"
         d="m 21.640098,20.26552 -9.957059,5.748705 0,-11.624814 9.957059,-5.7487051 z"
         points="11.683039,26.014225 11.683039,14.389411 21.640098,8.6407059 21.640098,20.26552 " />
      <path
         sodipodi:type="inkscape:box3dside"
         id="path79"
         style="fill:#afafde;fill-rule:evenodd;stroke:none;stroke-linejoin:round"
         inkscape:box3dsidetype="13"
         d="m 31.614018,26.023958 -9.957059,5.748705 V 20.147848 l 9.957059,-5.748705 z"
         points="21.656959,31.772663 21.656959,20.147848 31.614018,14.399143 31.614018,26.023958 " />
      <path
         sodipodi:type="inkscape:box3dside"
         id="path77"
         style="fill:#d7d7ff;fill-rule:evenodd;stroke:none;stroke-linejoin:round"
         inkscape:box3dsidetype="14"
         d="m 11.683039,26.014225 9.97392,5.758438 V 20.147848 l -9.97392,-5.758437 z"
         points="21.656959,31.772663 21.656959,20.147848 11.683039,14.389411 11.683039,26.014225 " />
      <path
         sodipodi:type="inkscape:box3dside"
         id="path81"
         style="fill:#e9e9ff;fill-rule:evenodd;stroke:none;stroke-linejoin:round"
         inkscape:box3dsidetype="11"
         d="m 21.640098,8.6407059 -9.957059,5.7487051 9.97392,5.758437 9.957059,-5.748705 z"
         points="11.683039,14.389411 21.656959,20.147848 31.614018,14.399143 21.640098,8.6407059 " />
    </g>
    <g
       sodipodi:type="inkscape:box3d"
       id="g370"
       style="fill:#ac9d93;stroke-width:3.08409"
       inkscape:perspectiveID="#perspective67"
       inkscape:corner0="0.090883854 : 0.036152075 : 0 : 1"
       inkscape:corner7="-0.69728163 : -0.055495381 : 0.79689596 : 1">
      <path
         sodipodi:type="inkscape:box3dside"
         id="path358"
         style="fill:#8686bf;fill-rule:evenodd;stroke:none;stroke-linejoin:round"
         inkscape:box3dsidetype="3"
         d="m 21.640098,20.26552 -9.957059,5.748705 9.97392,5.758438 9.957059,-5.748705 z"
         points="11.683039,26.014225 21.656959,31.772663 31.614018,26.023958 21.640098,20.26552 " />
      <path
         sodipodi:type="inkscape:box3dside"
         id="path360"
         style="fill:#353564;fill-rule:evenodd;stroke:none;stroke-linejoin:round"
         inkscape:box3dsidetype="6"
         d="m 21.640098,20.26552 9.97392,5.758438 0,-11.624815 -9.97392,-5.7584371 z"
         points="31.614018,26.023958 31.614018,14.399143 21.640098,8.6407059 21.640098,20.26552 " />
      <path
         sodipodi:type="inkscape:box3dside"
         id="path362"
         style="fill:#4d4d9f;fill-rule:evenodd;stroke:none;stroke-linejoin:round"
         inkscape:box3dsidetype="5"
         d="m 21.640098,20.26552 -9.957059,5.748705 0,-11.624814 9.957059,-5.7487051 z"
         points="11.683039,26.014225 11.683039,14.389411 21.640098,8.6407059 21.640098,20.26552 " />
      <path
         sodipodi:type="inkscape:box3dside"
         id="path364"
         style="fill:#afafde;fill-rule:evenodd;stroke:none;stroke-linejoin:round"
         inkscape:box3dsidetype="13"
         d="m 31.614018,26.023958 -9.957059,5.748705 V 20.147848 l 9.957059,-5.748705 z"
         points="21.656959,31.772663 21.656959,20.147848 31.614018,14.399143 31.614018,26.023958 " />
      <path
         sodipodi:type="inkscape:box3dside"
         id="path366"
         style="fill:#d7d7ff;fill-rule:evenodd;stroke:none;stroke-linejoin:round"
         inkscape:box3dsidetype="14"
         d="m 11.683039,26.014225 9.97392,5.758438 V 20.147848 l -9.97392,-5.758437 z"
         points="21.656959,31.772663 21.656959,20.147848 11.683039,14.389411 11.683039,26.014225 " />
      <path
         sodipodi:type="inkscape:box3dside"
         id="path368"
         style="fill:#e9e9ff;fill-rule:evenodd;stroke:none;stroke-linejoin:round"
         inkscape:box3dsidetype="11"
         d="m 21.640098,8.6407059 -9.957059,5.7487051 9.97392,5.758437 9.957059,-5.748705 z"
         points="11.683039,14.389411 21.656959,20.147848 31.614018,14.399143 21.640098,8.6407059 " />
    </g>
    <g
       sodipodi:type="inkscape:box3d"
       id="g386"
       style="fill:#ac9d93;stroke-width:3.08409"
       inkscape:perspectiveID="#perspective67"
       inkscape:corner0="0.090883854 : 0.036152075 : 0 : 1"
       inkscape:corner7="-0.69728163 : -0.055495381 : 0.79689596 : 1">
      <path
         sodipodi:type="inkscape:box3dside"
         id="path374"
         style="fill:#8686bf;fill-rule:evenodd;stroke:none;stroke-linejoin:round"
         inkscape:box3dsidetype="3"
         d="m 21.640098,20.26552 -9.957059,5.748705 9.97392,5.758438 9.957059,-5.748705 z"
         points="11.683039,26.014225 21.656959,31.772663 31.614018,26.023958 21.640098,20.26552 " />
      <path
         sodipodi:type="inkscape:box3dside"
         id="path376"
         style="fill:#353564;fill-rule:evenodd;stroke:none;stroke-linejoin:round"
         inkscape:box3dsidetype="6"
         d="m 21.640098,20.26552 9.97392,5.758438 0,-11.624815 -9.97392,-5.7584371 z"
         points="31.614018,26.023958 31.614018,14.399143 21.640098,8.6407059 21.640098,20.26552 " />
      <path
         sodipodi:type="inkscape:box3dside"
         id="path378"
         style="fill:#4d4d9f;fill-rule:evenodd;stroke:none;stroke-linejoin:round"
         inkscape:box3dsidetype="5"
         d="m 21.640098,20.26552 -9.957059,5.748705 0,-11.624814 9.957059,-5.7487051 z"
         points="11.683039,26.014225 11.683039,14.389411 21.640098,8.6407059 21.640098,20.26552 " />
      <path
         sodipodi:type="inkscape:box3dside"
         id="path380"
         style="fill:#008c00;fill-opacity:1;fill-rule:evenodd;stroke:none;stroke-linejoin:round"
         inkscape:box3dsidetype="13"
         d="m 31.614018,26.023958 -9.957059,5.748705 V 20.147848 l 9.957059,-5.748705 z"
         points="21.656959,31.772663 21.656959,20.147848 31.614018,14.399143 31.614018,26.023958 " />
      <path
         sodipodi:type="inkscape:box3dside"
         id="path382"
         style="fill:#009e00;fill-opacity:1;fill-rule:evenodd;stroke:none;stroke-linejoin:round"
         inkscape:box3dsidetype="14"
         d="m 11.683039,26.014225 9.97392,5.758438 V 20.147848 l -9.97392,-5.758437 z"
         points="21.656959,31.772663 21.656959,20.147848 11.683039,14.389411 11.683039,26.014225 " />
      <path
         sodipodi:type="inkscape:box3dside"
         id="path384"
         style="fill:#00a900;fill-opacity:1;fill-rule:evenodd;stroke:none;stroke-linejoin:round"
         inkscape:box3dsidetype="11"
         d="m 21.640098,8.6407059 -9.957059,5.7487051 9.97392,5.758437 9.957059,-5.748705 z"
         points="11.683039,14.389411 21.656959,20.147848 31.614018,14.399143 21.640098,8.6407059 " />
    </g>
    <g
       sodipodi:type="inkscape:box3d"
       id="g402"
       style="fill:#ac9d93;stroke-width:3.08409"
       inkscape:perspectiveID="#perspective67"
       inkscape:corner0="0.10188447 : -0.090566407 : 0 : 1"
       inkscape:corner7="-0.68628101 : -0.18221386 : 0.79689596 : 1">
      <path
         sodipodi:type="inkscape:box3dside"
         id="path390"
         style="fill:#8686bf;fill-rule:evenodd;stroke:none;stroke-linejoin:round"
         inkscape:box3dsidetype="3"
         d="m 35.569743,28.147322 -9.957059,5.748705 9.97392,5.758437 9.957059,-5.748705 z"
         points="25.612684,33.896027 35.586604,39.654464 45.543663,33.905759 35.569743,28.147322 " />
      <path
         sodipodi:type="inkscape:box3dside"
         id="path392"
         style="fill:#353564;fill-rule:evenodd;stroke:none;stroke-linejoin:round"
         inkscape:box3dsidetype="6"
         d="m 35.569743,28.147322 9.97392,5.758437 0,-11.624815 -9.97392,-5.758437 z"
         points="45.543663,33.905759 45.543663,22.280944 35.569743,16.522507 35.569743,28.147322 " />
      <path
         sodipodi:type="inkscape:box3dside"
         id="path394"
         style="fill:#4d4d9f;fill-rule:evenodd;stroke:none;stroke-linejoin:round"
         inkscape:box3dsidetype="5"
         d="m 35.569743,28.147322 -9.957059,5.748705 0,-11.624815 9.957059,-5.748705 z"
         points="25.612684,33.896027 25.612684,22.271212 35.569743,16.522507 35.569743,28.147322 " />
      <path
         sodipodi:type="inkscape:box3dside"
         id="path396"
         style="fill:#008f00;fill-opacity:1;fill-rule:evenodd;stroke:none;stroke-linejoin:round"
         inkscape:box3dsidetype="13"
         d="m 45.543663,33.905759 -9.957059,5.748705 V 28.029649 l 9.957059,-5.748705 z"
         points="35.586604,39.654464 35.586604,28.029649 45.543663,22.280944 45.543663,33.905759 " />
      <path
         sodipodi:type="inkscape:box3dside"
         id="path398"
         style="fill:#00a100;fill-opacity:1;fill-rule:evenodd;stroke:none;stroke-linejoin:round"
         inkscape:box3dsidetype="14"
         d="m 25.612684,33.896027 9.97392,5.758437 V 28.029649 l -9.97392,-5.758437 z"
         points="35.586604,39.654464 35.586604,28.029649 25.612684,22.271212 25.612684,33.896027 " />
      <path
         sodipodi:type="inkscape:box3dside"
         id="path400"
         style="fill:#00a900;fill-opacity:1;fill-rule:evenodd;stroke:none;stroke-linejoin:round"
         inkscape:box3dsidetype="11"
         d="m 35.569743,16.522507 -9.957059,5.748705 9.97392,5.758437 9.957059,-5.748705 z"
         points="25.612684,22.271212 35.586604,28.029649 45.543663,22.280944 35.569743,16.522507 " />
    </g>
    <g
       sodipodi:type="inkscape:box3d"
       id="g482"
       style="fill:#ac9d93;stroke-width:3.08409"
       inkscape:perspectiveID="#perspective67"
       inkscape:corner0="-0.99394995 : -0.089742409 : 0 : 1"
       inkscape:corner7="-1.7821154 : -0.18138986 : 0.79689596 : 1">
      <path
         sodipodi:type="inkscape:box3dside"
         id="path470"
         style="fill:#8686bf;fill-rule:evenodd;stroke:none;stroke-linejoin:round"
         inkscape:box3dsidetype="3"
         d="m 21.636163,36.088322 -9.957058,5.748705 9.97392,5.758437 9.957058,-5.748705 z"
         points="11.679105,41.837027 21.653025,47.595464 31.610083,41.846759 21.636163,36.088322 " />
      <path
         sodipodi:type="inkscape:box3dside"
         id="path472"
         style="fill:#353564;fill-rule:evenodd;stroke:none;stroke-linejoin:round"
         inkscape:box3dsidetype="6"
         d="m 21.636163,36.088322 9.97392,5.758437 V 30.221945 l -9.97392,-5.758438 z"
         points="31.610083,41.846759 31.610083,30.221945 21.636163,24.463507 21.636163,36.088322 " />
      <path
         sodipodi:type="inkscape:box3dside"
         id="path474"
         style="fill:#4d4d9f;fill-rule:evenodd;stroke:none;stroke-linejoin:round"
         inkscape:box3dsidetype="5"
         d="m 21.636163,36.088322 -9.957058,5.748705 0,-11.624815 9.957058,-5.748705 z"
         points="11.679105,41.837027 11.679105,30.212212 21.636163,24.463507 21.636163,36.088322 " />
      <path
         sodipodi:type="inkscape:box3dside"
         id="path476"
         style="fill:#008c00;fill-opacity:1;fill-rule:evenodd;stroke:none;stroke-linejoin:round"
         inkscape:box3dsidetype="13"
         d="m 31.610083,41.846759 -9.957058,5.748705 0,-11.624815 9.957058,-5.748704 z"
         points="21.653025,47.595464 21.653025,35.970649 31.610083,30.221945 31.610083,41.846759 " />
      <path
         sodipodi:type="inkscape:box3dside"
         id="path478"
         style="fill:#009e00;fill-opacity:1;fill-rule:evenodd;stroke:none;stroke-linejoin:round"
         inkscape:box3dsidetype="14"
         d="m 11.679105,41.837027 9.97392,5.758437 0,-11.624815 -9.97392,-5.758437 z"
         points="21.653025,47.595464 21.653025,35.970649 11.679105,30.212212 11.679105,41.837027 " />
      <path
         sodipodi:type="inkscape:box3dside"
         id="path480"
         style="fill:#00a900;fill-opacity:1;fill-rule:evenodd;stroke:none;stroke-linejoin:round"
         inkscape:box3dsidetype="11"
         d="m 21.636163,24.463507 -9.957058,5.748705 9.97392,5.758437 9.957058,-5.748704 z"
         points="11.679105,30.212212 21.653025,35.970649 31.610083,30.221945 21.636163,24.463507 " />
    </g>
    <rect
       style="fill:#ffff00;fill-opacity:1;stroke-width:0.815999"
       id="rect1644"
       width="1.3732229"
       height="14.656848"
       x="41.597858"
       y="-17.168905"
       transform="rotate(59.51143)"
       inkscape:transform-center-x="-0.25441584"
       inkscape:transform-center-y="-0.20244688" />
    <ellipse
       style="fill:#ffff00;fill-opacity:1;stroke-width:0.815999"
       id="path1750"
       cx="50.047787"
       cy="19.846804"
       rx="2.6068275"
       ry="2.6248624" />
    <ellipse
       style="fill:#ffff00;fill-opacity:1;stroke-width:0.815999"
       id="ellipse1752"
       cx="35.804699"
       cy="27.92317"
       rx="2.6068275"
       ry="2.6248624" />
    <ellipse
       style="fill:#ffff00;fill-opacity:1;stroke-width:0.815999"
       id="ellipse1754"
       cx="21.65843"
       cy="36.129372"
       rx="2.6068275"
       ry="2.6248624" />
    <ellipse
       style="fill:#ffff00;fill-opacity:1;stroke-width:0.815999"
       id="ellipse1756"
       cx="21.289198"
       cy="19.407951"
       rx="2.6068275"
       ry="2.6248624" />
    <rect
       style="fill:#ffff00;fill-opacity:1;stroke-width:0.815999"
       id="rect1758"
       width="1.3732229"
       height="14.656848"
       x="5.8933754"
       y="-44.226437"
       transform="rotate(119.8388)"
       inkscape:transform-center-x="-0.30184825"
       inkscape:transform-center-y="0.12083339" />
    <rect
       style="fill:#ffff00;fill-opacity:1;stroke-width:0.815999"
       id="rect1884"
       width="1.3732229"
       height="14.656848"
       x="41.631901"
       y="-33.149632"
       transform="rotate(59.756988)"
       inkscape:transform-center-x="-0.25528179"
       inkscape:transform-center-y="-0.2013532" />
    <g
       aria-label="DI Service"
       id="text1940"
       style="font-size:20.0043px;line-height:1.25;letter-spacing:0.625133px;word-spacing:0px;stroke-width:0.500107">
      <path
         d="m 67.909932,24.817081 v -9.642072 c 0,-0.70015 0.700151,-0.800172 1.680362,-0.800172 4.320928,0 5.621208,3.320714 5.621208,6.401376 0,4.040868 -2.300495,4.84104 -5.121101,4.84104 -1.960421,0 -2.180469,-0.160034 -2.180469,-0.800172 z m -0.860184,-11.26242 c -0.680147,0 -1.02022,-0.06001 -1.02022,-0.06001 l -0.04001,0.06001 c 0.160034,1.140245 0.200043,2.500537 0.200043,4.00086 v 4.901053 c 0,1.500322 -0.04001,2.920628 -0.200043,4.00086 l 0.02,0.06001 c 0,0 0.340073,-0.06001 1.040224,-0.06001 1.420305,0 1.600344,0.04001 3.660786,0.04001 2.820607,0 6.56141,-1.280275 6.56141,-6.201332 0,-3.7208 -3.080662,-6.801462 -6.921487,-6.801462 -1.280275,0 -2.020434,0.06001 -3.300709,0.06001 z"
         style="font-family:'Linux Biolinum O';-inkscape-font-specification:'Linux Biolinum O'"
         id="path629" />
      <path
         d="m 81.01773,17.555521 v 4.901053 c 0,1.500322 -0.04001,2.920628 -0.200043,4.00086 l 0.04001,0.06001 c 0.240052,-0.04001 0.780168,-0.06001 1.02022,-0.06001 0.240051,0 0.780167,0.02 1.020219,0.06001 l 0.04001,-0.06001 c -0.160034,-1.140245 -0.200043,-2.500538 -0.200043,-4.00086 v -4.901053 c 0,-1.500323 0.04001,-2.940632 0.200043,-4.00086 l -0.04001,-0.06001 c -0.240052,0.04001 -0.780168,0.06001 -1.020219,0.06001 -0.240052,0 -0.780168,-0.02 -1.02022,-0.06001 l -0.04001,0.06001 c 0.160034,1.140245 0.200043,2.500537 0.200043,4.00086 z"
         style="font-family:'Linux Biolinum O';-inkscape-font-specification:'Linux Biolinum O'"
         id="path631" />
      <path
         d="m 95.910941,25.777288 c -1.120241,0 -2.56055,-0.980211 -3.180684,-2.160465 l -0.200043,0.02001 c -0.08002,0.720154 -0.300064,1.460313 -0.460099,2.060442 l 0.04001,0.06001 c 0,0 1.30028,0.900194 3.640783,0.900194 2.460528,0 4.360933,-1.500323 4.360933,-3.820821 0,-2.320499 -1.980422,-3.380727 -3.580766,-4.00086 -1.020219,-0.380082 -2.440524,-0.960207 -2.440524,-2.620563 0,-0.720155 0.400086,-1.520327 0.920197,-1.800387 0.340074,-0.180039 0.760164,-0.240052 1.220263,-0.240052 1.100236,0 2.180468,0.860185 2.720584,2.100451 l 0.200043,-0.02 c 0.08002,-0.720155 0.280061,-1.400301 0.460099,-2.00043 l -0.04001,-0.06001 c 0,0 -0.840181,-0.900193 -3.180684,-0.900193 -0.540116,0 -1.140245,0.100021 -1.72037,0.340073 -1.180253,0.500107 -2.200473,1.660357 -2.200473,3.120671 0,2.100451 1.780383,3.080662 3.44074,3.780812 1.300279,0.540116 2.340503,1.200258 2.340503,2.900624 0,1.500322 -1.160249,2.340503 -2.340503,2.340503 z"
         style="font-family:'Linux Biolinum O';-inkscape-font-specification:'Linux Biolinum O'"
         id="path633" />
      <path
         d="m 104.31776,20.99626 c 0.34007,-2.080447 1.64035,-2.520542 2.28049,-2.520542 0.78016,0 1.68036,0.740159 1.68036,2.240482 0,0.180039 -0.08,0.28006 -0.28006,0.28006 z m 5.34114,3.380727 c -0.70015,0.760163 -1.64035,1.100236 -2.74058,1.100236 -0.70016,0 -1.64036,-0.260056 -2.18047,-1.140245 -0.36008,-0.56012 -0.48011,-1.360292 -0.48011,-2.540546 h 5.44117 c 0.22005,0 0.36008,-0.120026 0.36008,-0.340073 0,-1.680361 -0.82018,-3.780813 -3.46074,-3.780813 -2.06045,0 -4.10089,1.660357 -4.10089,4.600989 0,1.140245 0.22005,2.260486 0.9002,3.060658 0.68014,0.840181 1.82039,1.320284 3.18068,1.320284 1.44031,0 2.72059,-0.740159 3.48075,-1.780383 z"
         style="font-family:'Linux Biolinum O';-inkscape-font-specification:'Linux Biolinum O'"
         id="path635" />
      <path
         d="m 114.845,19.775998 v -1.820391 c 0,-0.140031 -0.04,-0.200043 -0.12003,-0.200043 -0.4601,0.100021 -1.18025,0.120025 -1.62035,0.06001 l -0.04,0.06001 c 0.14003,0.88019 0.18003,2.380512 0.18003,3.880834 v 1.100237 c 0,1.500322 -0.04,2.540546 -0.18003,3.600774 l 0.04,0.06001 c 0.24006,-0.04001 0.70015,-0.06001 0.94021,-0.06001 0.24005,0 0.70015,0.02 0.9402,0.06001 l 0.04,-0.06001 C 114.865,25.317189 114.845,24.376987 114.845,22.85666 v -1.040224 c 0,-0.84018 0.24005,-1.320283 0.68014,-1.980425 0.28006,-0.440095 0.74016,-0.700151 1.12024,-0.700151 0.40009,0 0.78017,0.04001 1.04023,0.28006 l 0.16003,-0.04001 0.40009,-1.480318 -0.08,-0.08002 c -0.34007,-0.100021 -0.36008,-0.14003 -0.72015,-0.14003 -1.08024,0 -1.66036,0.620134 -2.54055,2.14046 z"
         style="font-family:'Linux Biolinum O';-inkscape-font-specification:'Linux Biolinum O'"
         id="path637" />
      <path
         d="m 123.57185,26.517447 c 0.20004,-0.06001 0.42009,-0.06001 0.62013,-0.06001 0.20005,0 0.42009,0 0.60013,0.06001 1.04023,-2.920628 2.28049,-5.761239 3.58077,-8.701871 -0.18004,0.06001 -0.56012,0.06001 -0.76016,0.06001 -0.20004,0 -0.50011,0 -0.68015,-0.06001 -0.82017,2.280491 -1.52032,4.881049 -2.44052,6.841471 h -0.04 c -1.00021,-2.28049 -1.64035,-4.540976 -2.36051,-6.841471 -0.26005,0.06001 -0.72015,0.06001 -1.00021,0.06001 -0.32007,0 -0.84018,0 -1.16025,-0.06001 1.34029,2.940632 2.52054,5.781243 3.64078,8.701871 z"
         style="font-family:'Linux Biolinum O';-inkscape-font-specification:'Linux Biolinum O'"
         id="path639" />
      <path
         d="m 130.99845,14.514867 c 0,0.540116 0.4801,1.020219 1.02021,1.020219 0.54012,0 1.02022,-0.480103 1.02022,-1.020219 0,-0.540116 -0.4801,-1.020219 -1.02022,-1.020219 -0.54011,0 -1.02021,0.480103 -1.02021,1.020219 z m 0.20004,7.241556 v 1.100237 c 0,1.500322 -0.04,2.520542 -0.18004,3.600774 l 0.04,0.06001 c 0.24005,-0.04001 0.70015,-0.06001 0.9402,-0.06001 0.24005,0 0.70015,0.02 0.9402,0.06001 l 0.04,-0.06001 c -0.16003,-1.120241 -0.18004,-2.080447 -0.18004,-3.600774 v -1.420305 c 0,-1.500323 0.04,-2.220478 0.18004,-3.44074 0,-0.180039 -0.04,-0.200043 -0.18004,-0.200043 -0.4601,0.06001 -1.32028,0.06001 -1.74037,0.02 l -0.04,0.06001 c 0.12003,0.860185 0.18004,2.380512 0.18004,3.880834 z"
         style="font-family:'Linux Biolinum O';-inkscape-font-specification:'Linux Biolinum O'"
         id="path641" />
      <path
         d="m 140.22543,18.475718 c 0.76017,0 1.46032,0.580125 2.00043,1.480318 l 0.26006,-0.02 0.4601,-1.640352 -0.04,-0.06001 c -0.62013,-0.320069 -1.66036,-0.560121 -2.66057,-0.560121 -2.08045,0 -4.26092,1.700366 -4.26092,4.42095 0,2.800602 1.58034,4.560981 4.02087,4.560981 1.20025,0 2.14046,-0.400086 2.94063,-1.420306 l -0.38008,-0.42009 h -0.08 c -0.76017,0.680146 -1.4003,0.840181 -2.14046,0.840181 -1.46032,0 -2.60056,-1.320284 -2.60056,-3.660787 0,-2.200473 1.16025,-3.520757 2.48053,-3.520757 z"
         style="font-family:'Linux Biolinum O';-inkscape-font-specification:'Linux Biolinum O'"
         id="path643" />
      <path
         d="m 146.93189,20.99626 c 0.34007,-2.080447 1.64035,-2.520542 2.28049,-2.520542 0.78017,0 1.68036,0.740159 1.68036,2.240482 0,0.180039 -0.08,0.28006 -0.28006,0.28006 z m 5.34115,3.380727 c -0.70015,0.760163 -1.64036,1.100236 -2.74059,1.100236 -0.70015,0 -1.64036,-0.260056 -2.18047,-1.140245 -0.36008,-0.56012 -0.4801,-1.360292 -0.4801,-2.540546 h 5.44116 c 0.22005,0 0.36008,-0.120026 0.36008,-0.340073 0,-1.680361 -0.82017,-3.780813 -3.46074,-3.780813 -2.06044,0 -4.10088,1.660357 -4.10088,4.600989 0,1.140245 0.22004,2.260486 0.90019,3.060658 0.68015,0.840181 1.82039,1.320284 3.18068,1.320284 1.44031,0 2.72059,-0.740159 3.48075,-1.780383 z"
         style="font-family:'Linux Biolinum O';-inkscape-font-specification:'Linux Biolinum O'"
         id="path645" />
    </g>
    <g
       aria-label="Dependency Injection for any JS project"
       id="text2034"
       style="font-size:6.50507px;line-height:1.25;letter-spacing:0px;word-spacing:0px;stroke-width:0.162627"
       transform="matrix(0.91086472,0,0,0.91086472,14.279591,2.6095692)">
      <path
         d="m 41.780275,43.651246 v -2.263765 c 0,-0.169132 0.169132,-0.195152 0.40982,-0.195152 1.053821,0 1.268488,0.767598 1.268488,1.515681 0,0.988771 -0.46186,1.138388 -1.144892,1.138388 -0.481375,0 -0.533416,-0.03903 -0.533416,-0.195152 z m -0.312243,-2.699605 c -0.169132,0 -0.351274,-0.01952 -0.351274,-0.01952 l -0.01301,0.01952 c 0.03903,0.273213 0.05204,0.604972 0.05204,0.975761 v 1.190428 c 0,0.370789 -0.01301,0.715557 -0.05204,0.97576 l 0.0065,0.01951 c 0,0 0.188647,-0.01951 0.357779,-0.01951 0.390304,0 0.494385,0.01301 0.995276,0.01301 0.689537,0 1.704328,-0.312243 1.704328,-1.515681 0,-0.904205 -0.858669,-1.658793 -1.795399,-1.658793 -0.351274,0 -0.546426,0.01952 -0.904205,0.01952 z m -0.754588,-1.261983 h 3.7209 c 0.390304,0 0.539921,0.214667 0.539921,0.604971 v 4.410438 c 0,0.390304 -0.149617,0.539921 -0.539921,0.539921 h -3.7209 c -0.390304,0 -0.604972,-0.149617 -0.604972,-0.539921 v -4.410438 c 0,-0.390304 0.214668,-0.604971 0.604972,-0.604971 z m 4.885308,5.217066 v -4.612095 c 0,-0.585456 -0.3838,-0.839154 -0.969256,-0.839154 h -3.916052 c -0.526911,0 -0.839154,0.299233 -0.839154,0.839154 v 4.612095 c 0,0.585456 0.253697,0.832649 0.839154,0.832649 h 4.111204 c 0.585457,0 0.774104,-0.247193 0.774104,-0.832649 z"
         style="font-family:'Linux Biolinum Keyboard O';-inkscape-font-specification:'Linux Biolinum Keyboard O'"
         id="path648" />
      <path
         d="m 47.062395,42.584414 c 0.110586,-0.676527 0.533415,-0.819639 0.741578,-0.819639 0.253697,0 0.546426,0.240688 0.546426,0.728568 0,0.05855 -0.02602,0.09107 -0.09107,0.09107 z m 1.736853,1.099357 c -0.227677,0.247193 -0.533415,0.357779 -0.891194,0.357779 -0.227678,0 -0.533416,-0.08457 -0.709053,-0.370789 -0.117091,-0.182142 -0.156122,-0.442345 -0.156122,-0.826144 h 1.76938 c 0.07156,0 0.117091,-0.03903 0.117091,-0.110586 0,-0.546426 -0.266708,-1.229459 -1.125377,-1.229459 -0.670023,0 -1.33354,0.539921 -1.33354,1.496166 0,0.370789 0.07156,0.735073 0.292728,0.995276 0.221173,0.273213 0.591962,0.429335 1.034307,0.429335 0.468365,0 0.884689,-0.240688 1.131882,-0.578951 z"
         style="font-family:'Linux Biolinum O';-inkscape-font-specification:'Linux Biolinum O'"
         id="path650" />
      <path
         d="m 50.249873,42.447808 c 0.143112,-0.344769 0.526911,-0.644002 0.780608,-0.644002 0.442345,0 0.670023,0.403314 0.670023,1.138387 0,0.533416 -0.149617,1.222953 -0.845659,1.222953 -0.104082,0 -0.377295,-0.02602 -0.604972,-0.292728 z m 0,-0.377295 v -0.47487 c 0,-0.04554 -0.01301,-0.06505 -0.03903,-0.06505 -0.149617,0.03252 -0.3838,0.03903 -0.526911,0.01951 l -0.01301,0.01951 c 0.04554,0.286223 0.05855,0.774103 0.05855,1.261984 v 1.736853 c 0,0.487881 -0.01301,0.956246 -0.05855,1.301014 l 0.01301,0.01952 c 0.07806,-0.01301 0.227677,-0.01952 0.305738,-0.01952 0.07806,0 0.227678,0.0065 0.305738,0.01952 l 0.01301,-0.01952 c -0.05204,-0.370789 -0.05855,-0.806628 -0.05855,-1.301014 v -0.286223 c 0.169132,0.09107 0.409819,0.143112 0.644002,0.143112 0.858669,0 1.379075,-0.650507 1.379075,-1.567722 0,-0.689538 -0.403315,-1.353055 -1.131882,-1.353055 -0.253698,0 -0.578952,0.130102 -0.878185,0.585457 z"
         style="font-family:'Linux Biolinum O';-inkscape-font-specification:'Linux Biolinum O'"
         id="path652" />
      <path
         d="m 53.456877,42.584414 c 0.110586,-0.676527 0.533416,-0.819639 0.741578,-0.819639 0.253698,0 0.546426,0.240688 0.546426,0.728568 0,0.05855 -0.02602,0.09107 -0.09107,0.09107 z m 1.736854,1.099357 c -0.227677,0.247193 -0.533416,0.357779 -0.891195,0.357779 -0.227677,0 -0.533415,-0.08457 -0.709052,-0.370789 -0.117091,-0.182142 -0.156122,-0.442345 -0.156122,-0.826144 h 1.769379 c 0.07156,0 0.117091,-0.03903 0.117091,-0.110586 0,-0.546426 -0.266707,-1.229459 -1.125377,-1.229459 -0.670022,0 -1.333539,0.539921 -1.333539,1.496166 0,0.370789 0.07156,0.735073 0.292728,0.995276 0.221172,0.273213 0.591961,0.429335 1.034306,0.429335 0.468365,0 0.88469,-0.240688 1.131882,-0.578951 z"
         style="font-family:'Linux Biolinum O';-inkscape-font-specification:'Linux Biolinum O'"
         id="path654" />
      <path
         d="m 58.582867,43.189386 c 0,-0.208163 0.01301,-0.44885 0.01301,-0.657013 0,-0.676527 -0.221173,-1.027801 -0.806629,-1.027801 -0.247193,0 -0.709053,0.09758 -1.125377,0.585457 l -0.01301,-0.01952 v -0.47487 c -0.0065,-0.04554 -0.01301,-0.06505 -0.03903,-0.06505 -0.149616,0.03252 -0.383799,0.03903 -0.52691,0.01951 l -0.01301,0.01951 c 0.04554,0.286223 0.05855,0.774103 0.05855,1.261984 v 0.357779 c 0,0.48788 -0.0065,0.819638 -0.05855,1.170912 l 0.01301,0.01951 c 0.07806,-0.01301 0.227677,-0.01951 0.305738,-0.01951 0.07806,0 0.227677,0.0065 0.305738,0.01951 l 0.01301,-0.01951 c -0.05204,-0.370789 -0.05855,-0.676527 -0.05855,-1.170912 v -0.761094 c 0.331758,-0.390304 0.709052,-0.533415 0.943235,-0.533415 0.331758,0 0.468365,0.130101 0.468365,0.657012 v 0.637497 c 0,0.48788 -0.01301,0.826143 -0.05855,1.170912 l 0.01301,0.01951 c 0.07806,-0.01301 0.227678,-0.01951 0.305739,-0.01951 0.07806,0 0.227677,0.0065 0.305738,0.01951 l 0.01301,-0.01951 c -0.05204,-0.370789 -0.05855,-0.676527 -0.05855,-1.170912 z"
         style="font-family:'Linux Biolinum O';-inkscape-font-specification:'Linux Biolinum O'"
         id="path656" />
      <path
         d="m 61.445094,43.625225 c -0.240688,0.305739 -0.539921,0.46186 -0.800124,0.46186 -0.351273,0 -0.650507,-0.351274 -0.650507,-1.164407 0,-0.975761 0.513901,-1.157903 0.832649,-1.157903 0.305739,0 0.46186,0.130102 0.617982,0.377294 z m 0,0.357779 h 0.01301 l 0.03252,0.377294 c 0,0.01301 0.01952,0.01951 0.05855,0.01951 0.08457,-0.0065 0.130101,-0.01951 0.221172,-0.01951 0.08457,0 0.208163,0.0065 0.292729,0.01951 l 0.01301,-0.01951 C 62.024045,44.08058 61.9655,43.599205 61.9655,43.111325 v -2.003562 c 0,-0.481375 0.02602,-0.819639 0.05855,-1.222953 0,-0.04554 -0.01951,-0.06505 -0.05855,-0.06505 -0.169132,0.06505 -0.305739,0.110586 -0.565942,0.130102 l -0.01301,0.01951 c 0.04554,0.279718 0.05855,0.761093 0.05855,1.255478 v 0.42283 c -0.149617,-0.08457 -0.416325,-0.143112 -0.546426,-0.143112 -0.852164,0 -1.470146,0.585457 -1.470146,1.470146 0,0.800124 0.47487,1.450631 1.177418,1.450631 0.312243,0 0.604971,-0.136607 0.839154,-0.442345 z"
         style="font-family:'Linux Biolinum O';-inkscape-font-specification:'Linux Biolinum O'"
         id="path658" />
      <path
         d="m 63.35759,42.584414 c 0.110586,-0.676527 0.533416,-0.819639 0.741578,-0.819639 0.253698,0 0.546426,0.240688 0.546426,0.728568 0,0.05855 -0.02602,0.09107 -0.09107,0.09107 z m 1.736854,1.099357 c -0.227677,0.247193 -0.533416,0.357779 -0.891195,0.357779 -0.227677,0 -0.533415,-0.08457 -0.709052,-0.370789 -0.117092,-0.182142 -0.156122,-0.442345 -0.156122,-0.826144 h 1.769379 c 0.07156,0 0.117091,-0.03903 0.117091,-0.110586 0,-0.546426 -0.266707,-1.229459 -1.125377,-1.229459 -0.670022,0 -1.333539,0.539921 -1.333539,1.496166 0,0.370789 0.07156,0.735073 0.292728,0.995276 0.221172,0.273213 0.591961,0.429335 1.034306,0.429335 0.468365,0 0.88469,-0.240688 1.131882,-0.578951 z"
         style="font-family:'Linux Biolinum O';-inkscape-font-specification:'Linux Biolinum O'"
         id="path660" />
      <path
         d="m 68.483579,43.189386 c 0,-0.208163 0.01301,-0.44885 0.01301,-0.657013 0,-0.676527 -0.221173,-1.027801 -0.806629,-1.027801 -0.247193,0 -0.709053,0.09758 -1.125377,0.585457 l -0.01301,-0.01952 v -0.47487 c -0.0065,-0.04554 -0.01301,-0.06505 -0.03903,-0.06505 -0.149616,0.03252 -0.383799,0.03903 -0.52691,0.01951 l -0.01301,0.01951 c 0.04554,0.286223 0.05855,0.774103 0.05855,1.261984 v 0.357779 c 0,0.48788 -0.0065,0.819638 -0.05855,1.170912 l 0.01301,0.01951 c 0.07806,-0.01301 0.227677,-0.01951 0.305738,-0.01951 0.07806,0 0.227677,0.0065 0.305738,0.01951 l 0.01301,-0.01951 c -0.05204,-0.370789 -0.05854,-0.676527 -0.05854,-1.170912 v -0.761094 c 0.331758,-0.390304 0.709052,-0.533415 0.943235,-0.533415 0.331758,0 0.468365,0.130101 0.468365,0.657012 v 0.637497 c 0,0.48788 -0.01301,0.826143 -0.05855,1.170912 l 0.01301,0.01951 c 0.07806,-0.01301 0.227678,-0.01951 0.305739,-0.01951 0.07806,0 0.227677,0.0065 0.305738,0.01951 l 0.01301,-0.01951 c -0.05204,-0.370789 -0.05855,-0.676527 -0.05855,-1.170912 z"
         style="font-family:'Linux Biolinum O';-inkscape-font-specification:'Linux Biolinum O'"
         id="path662" />
      <path
         d="m 70.623744,41.764775 c 0.247193,0 0.47487,0.188647 0.650507,0.481375 l 0.08457,-0.0065 0.149617,-0.533415 -0.01301,-0.01952 c -0.201658,-0.104081 -0.539921,-0.182142 -0.865175,-0.182142 -0.676527,0 -1.38558,0.552931 -1.38558,1.437621 0,0.91071 0.513901,1.483156 1.307519,1.483156 0.390305,0 0.696043,-0.130102 0.956246,-0.46186 l -0.123597,-0.136607 h -0.02602 c -0.247193,0.221173 -0.455355,0.273213 -0.696042,0.273213 -0.474871,0 -0.84566,-0.429334 -0.84566,-1.190427 0,-0.715558 0.377294,-1.144893 0.806629,-1.144893 z"
         style="font-family:'Linux Biolinum O';-inkscape-font-specification:'Linux Biolinum O'"
         id="path664" />
      <path
         d="m 71.9703,41.550108 c 0.253698,0.578951 1.027801,2.257259 1.261984,2.875241 -0.208162,0.48788 -0.47487,0.988771 -0.767598,1.476651 0.06505,-0.01951 0.162626,-0.03253 0.227677,-0.03253 0.06505,0 0.253698,0.01301 0.318749,0.03253 0.247192,-0.813134 1.671803,-3.916052 1.88647,-4.351892 -0.06505,0.01951 -0.214667,0.01951 -0.279718,0.01951 -0.06505,0 -0.188647,0 -0.253698,-0.01951 -0.234182,0.735073 -0.539921,1.567722 -0.858669,2.244249 h -0.01301 C 73.173738,43.020254 72.868,42.298191 72.627312,41.550108 c -0.08456,0.01951 -0.227677,0.01951 -0.318748,0.01951 -0.08457,0 -0.247193,0 -0.338264,-0.01951 z"
         style="font-family:'Linux Biolinum O';-inkscape-font-specification:'Linux Biolinum O'"
         id="path666" />
      <path
         d="m 79.841437,41.927402 v 1.190428 c 0,0.370789 -0.01301,0.715557 -0.05204,0.97576 l 0.0065,0.01951 c 0,0 0.188647,-0.01951 0.357779,-0.01951 0.169132,0 0.351274,0.01951 0.351274,0.01951 l 0.01301,-0.01951 c -0.03903,-0.273213 -0.05204,-0.604971 -0.05204,-0.97576 v -1.190428 c 0,-0.370789 0.01301,-0.722063 0.05204,-0.975761 l -0.0065,-0.01952 c 0,0 -0.188647,0.01952 -0.357779,0.01952 -0.169132,0 -0.351274,-0.01952 -0.351274,-0.01952 l -0.01301,0.01952 c 0.03903,0.273213 0.05204,0.604972 0.05204,0.975761 z m -1.515681,-2.237744 h 3.7209 c 0.390305,0 0.539921,0.214667 0.539921,0.604971 v 4.410438 c 0,0.390304 -0.149616,0.539921 -0.539921,0.539921 h -3.7209 c -0.390304,0 -0.604971,-0.149617 -0.604971,-0.539921 v -4.410438 c 0,-0.390304 0.214667,-0.604971 0.604971,-0.604971 z m 4.885308,5.217066 v -4.612095 c 0,-0.585456 -0.383799,-0.839154 -0.969256,-0.839154 h -3.916052 c -0.526911,0 -0.839154,0.299233 -0.839154,0.839154 v 4.612095 c 0,0.585456 0.253698,0.832649 0.839154,0.832649 h 4.111205 c 0.585456,0 0.774103,-0.247193 0.774103,-0.832649 z"
         style="font-family:'Linux Biolinum Keyboard O';-inkscape-font-specification:'Linux Biolinum Keyboard O'"
         id="path668" />
      <path
         d="m 86.853905,43.189386 c 0,-0.208163 0.01301,-0.44885 0.01301,-0.657013 0,-0.676527 -0.221173,-1.027801 -0.806629,-1.027801 -0.247193,0 -0.709053,0.09758 -1.125377,0.585457 l -0.01301,-0.01952 v -0.47487 c -0.0065,-0.04554 -0.01301,-0.06505 -0.03903,-0.06505 -0.149616,0.03252 -0.383799,0.03903 -0.52691,0.01951 l -0.01301,0.01951 c 0.04554,0.286223 0.05855,0.774103 0.05855,1.261984 v 0.357779 c 0,0.48788 -0.0065,0.819638 -0.05855,1.170912 l 0.01301,0.01951 c 0.07806,-0.01301 0.227677,-0.01951 0.305738,-0.01951 0.07806,0 0.227677,0.0065 0.305738,0.01951 l 0.01301,-0.01951 c -0.05204,-0.370789 -0.05855,-0.676527 -0.05855,-1.170912 v -0.761094 c 0.331758,-0.390304 0.709052,-0.533415 0.943235,-0.533415 0.331758,0 0.468365,0.130101 0.468365,0.657012 v 0.637497 c 0,0.48788 -0.01301,0.826143 -0.05855,1.170912 l 0.01301,0.01951 c 0.07806,-0.01301 0.227678,-0.01951 0.305739,-0.01951 0.07806,0 0.227677,0.0065 0.305738,0.01951 l 0.01301,-0.01951 c -0.05204,-0.370789 -0.05855,-0.676527 -0.05855,-1.170912 z"
         style="font-family:'Linux Biolinum O';-inkscape-font-specification:'Linux Biolinum O'"
         id="path670" />
      <path
         d="m 87.953258,40.476771 c 0,0.175637 0.156122,0.331759 0.331759,0.331759 0.175636,0 0.331758,-0.156122 0.331758,-0.331759 0,-0.175637 -0.156122,-0.331758 -0.331758,-0.331758 -0.175637,0 -0.331759,0.156121 -0.331759,0.331758 z m 0.598466,2.250755 c 0,-0.487881 0.01301,-0.722063 0.05855,-1.118873 0,-0.05854 -0.01301,-0.06505 -0.05855,-0.06505 -0.149616,0.01952 -0.429334,0.01952 -0.565941,0.0065 l -0.01301,0.01951 c 0.03903,0.279718 0.05855,0.774103 0.05855,1.261984 v 0.904204 c 0,0.891195 -0.04554,1.639278 -0.40982,1.639278 -0.188647,0 -0.318748,-0.162627 -0.390304,-0.292728 l -0.104081,0.02602 c 0,0.175637 0,0.481375 -0.02602,0.578951 l 0.0065,0.01952 c 0.05204,0.03252 0.156122,0.05855 0.279718,0.05855 0.409819,0 0.696042,-0.240687 0.878184,-0.52691 0.195152,-0.312244 0.286223,-0.683033 0.286223,-1.658793 z"
         style="font-family:'Linux Biolinum O';-inkscape-font-specification:'Linux Biolinum O'"
         id="path672" />
      <path
         d="m 89.95031,42.584414 c 0.110586,-0.676527 0.533416,-0.819639 0.741578,-0.819639 0.253698,0 0.546426,0.240688 0.546426,0.728568 0,0.05855 -0.02602,0.09107 -0.09107,0.09107 z m 1.736854,1.099357 c -0.227677,0.247193 -0.533416,0.357779 -0.891195,0.357779 -0.227677,0 -0.533415,-0.08457 -0.709052,-0.370789 -0.117091,-0.182142 -0.156122,-0.442345 -0.156122,-0.826144 h 1.769379 c 0.07156,0 0.117091,-0.03903 0.117091,-0.110586 0,-0.546426 -0.266707,-1.229459 -1.125377,-1.229459 -0.670022,0 -1.333539,0.539921 -1.333539,1.496166 0,0.370789 0.07156,0.735073 0.292728,0.995276 0.221172,0.273213 0.591961,0.429335 1.034306,0.429335 0.468365,0 0.88469,-0.240688 1.131882,-0.578951 z"
         style="font-family:'Linux Biolinum O';-inkscape-font-specification:'Linux Biolinum O'"
         id="path674" />
      <path
         d="m 93.755773,41.764775 c 0.247192,0 0.47487,0.188647 0.650507,0.481375 l 0.08457,-0.0065 0.149616,-0.533415 -0.01301,-0.01952 c -0.201657,-0.104081 -0.539921,-0.182142 -0.865174,-0.182142 -0.676528,0 -1.38558,0.552931 -1.38558,1.437621 0,0.91071 0.5139,1.483156 1.307519,1.483156 0.390304,0 0.696042,-0.130102 0.956245,-0.46186 L 94.51687,43.826883 h -0.02602 c -0.247193,0.221173 -0.455355,0.273213 -0.696043,0.273213 -0.47487,0 -0.845659,-0.429334 -0.845659,-1.190427 0,-0.715558 0.377294,-1.144893 0.806629,-1.144893 z"
         style="font-family:'Linux Biolinum O';-inkscape-font-specification:'Linux Biolinum O'"
         id="path676" />
      <path
         d="m 95.538167,41.569623 c -0.136607,0 -0.273213,0 -0.351274,-0.01301 -0.04554,0.110586 -0.08457,0.169132 -0.143112,0.266708 l 0.03253,0.04554 c 0.110586,-0.0065 0.312243,-0.0065 0.46186,-0.01301 v 0.891195 c 0,0.390304 -0.01951,0.858669 -0.01951,1.053821 0,0.42283 0.273212,0.624487 0.572446,0.624487 0.273213,0 0.481375,-0.06505 0.754588,-0.240688 L 96.76112,44.02854 c -0.195152,0.06505 -0.344769,0.07156 -0.507396,0.04554 -0.156121,-0.01951 -0.214667,-0.175637 -0.214667,-0.533416 0,-0.195152 0.01951,-0.47487 0.01951,-0.865174 v -0.819639 h 0.247193 c 0.156122,0 0.377294,0.0065 0.468365,0.01301 0.01951,-0.104081 0.03903,-0.169132 0.07806,-0.266708 l -0.03253,-0.04554 c -0.117092,0.0065 -0.305739,0.01301 -0.455355,0.01301 h -0.305739 c 0,-0.481375 0,-0.572446 0.03253,-0.94974 0,-0.04554 -0.01951,-0.06505 -0.05855,-0.06505 -0.169132,0.06505 -0.247193,0.136607 -0.455355,0.162627 l -0.01301,0.01951 c -0.01301,0.227678 -0.02602,0.455355 -0.02602,0.832649 z"
         style="font-family:'Linux Biolinum O';-inkscape-font-specification:'Linux Biolinum O'"
         id="path678" />
      <path
         d="m 97.652314,40.476771 c 0,0.175637 0.156122,0.331759 0.331759,0.331759 0.175637,0 0.331758,-0.156122 0.331758,-0.331759 0,-0.175637 -0.156121,-0.331758 -0.331758,-0.331758 -0.175637,0 -0.331759,0.156121 -0.331759,0.331758 z m 0.06505,2.354836 v 0.357779 c 0,0.48788 -0.01301,0.819638 -0.05855,1.170912 l 0.01301,0.01951 c 0.07806,-0.01301 0.227678,-0.01951 0.305739,-0.01951 0.07806,0 0.227677,0.0065 0.305738,0.01951 l 0.01301,-0.01951 c -0.05204,-0.364284 -0.05855,-0.676527 -0.05855,-1.170912 v -0.46186 c 0,-0.487881 0.01301,-0.722063 0.05855,-1.118873 0,-0.05854 -0.01301,-0.06505 -0.05855,-0.06505 -0.149616,0.01952 -0.429334,0.01952 -0.565941,0.0065 l -0.01301,0.01951 c 0.03903,0.279718 0.05855,0.774103 0.05855,1.261984 z"
         style="font-family:'Linux Biolinum O';-inkscape-font-specification:'Linux Biolinum O'"
         id="path680" />
      <path
         d="m 99.070423,43.026759 c 0,0.780608 0.513901,1.39859 1.379077,1.39859 0.85867,0 1.37907,-0.604972 1.37907,-1.457136 0,-0.884689 -0.47487,-1.463641 -1.35305,-1.463641 -0.852166,0 -1.405097,0.598467 -1.405097,1.522187 z m 1.359557,-1.261984 c 0.68954,0 0.82615,0.533416 0.82615,1.320529 0,0.624487 -0.31225,1.079842 -0.74809,1.079842 -0.689534,0 -0.86517,-0.748083 -0.86517,-1.248973 0,-0.565942 0.175636,-1.151398 0.78711,-1.151398 z"
         style="font-family:'Linux Biolinum O';-inkscape-font-specification:'Linux Biolinum O'"
         id="path682" />
      <path
         d="m 105.0681,43.189386 c 0,-0.208163 0.013,-0.44885 0.013,-0.657013 0,-0.676527 -0.22118,-1.027801 -0.80663,-1.027801 -0.2472,0 -0.70906,0.09758 -1.12538,0.585457 l -0.013,-0.01952 v -0.47487 c -0.007,-0.04554 -0.013,-0.06505 -0.039,-0.06505 -0.14962,0.03252 -0.3838,0.03903 -0.52691,0.01951 l -0.013,0.01951 c 0.0455,0.286223 0.0585,0.774103 0.0585,1.261984 v 0.357779 c 0,0.48788 -0.007,0.819638 -0.0585,1.170912 l 0.013,0.01951 c 0.0781,-0.01301 0.22768,-0.01951 0.30574,-0.01951 0.0781,0 0.22767,0.0065 0.30574,0.01951 l 0.013,-0.01951 c -0.052,-0.370789 -0.0586,-0.676527 -0.0586,-1.170912 v -0.761094 c 0.33176,-0.390304 0.70905,-0.533415 0.94324,-0.533415 0.33175,0 0.46836,0.130101 0.46836,0.657012 v 0.637497 c 0,0.48788 -0.013,0.826143 -0.0585,1.170912 l 0.013,0.01951 c 0.0781,-0.01301 0.22768,-0.01951 0.30574,-0.01951 0.0781,0 0.22768,0.0065 0.30574,0.01951 l 0.013,-0.01951 c -0.052,-0.370789 -0.0585,-0.676527 -0.0585,-1.170912 z"
         style="font-family:'Linux Biolinum O';-inkscape-font-specification:'Linux Biolinum O'"
         id="path684" />
      <path
         d="m 107.85226,41.569623 c -0.14311,0 -0.29273,0 -0.37729,-0.01301 -0.0455,0.110586 -0.0846,0.169132 -0.14311,0.266708 l 0.0325,0.04554 c 0.11709,-0.0065 0.33176,-0.01301 0.48138,-0.01301 h 0.007 v 1.209943 c 0,0.48788 -0.013,0.94974 -0.065,1.294509 l 0.013,0.01951 c 0.0781,-0.01301 0.23418,-0.01951 0.31224,-0.01951 0.0781,0 0.23419,0.0065 0.31225,0.01951 l 0.013,-0.01951 c -0.0585,-0.370789 -0.065,-0.806629 -0.065,-1.294509 v -1.209943 h 0.22117 c 0.15612,0 0.37729,0.0065 0.46836,0.01301 0.0195,-0.104081 0.039,-0.169132 0.0781,-0.266708 l -0.0325,-0.04554 c -0.11059,0.0065 -0.30574,0.01301 -0.45535,0.01301 h -0.27972 v -0.05855 c 0,-0.234182 -0.0325,-0.572446 -0.0325,-0.689537 0,-0.357779 0.22768,-0.604972 0.60497,-0.604972 0.16263,0 0.30574,0.09758 0.3773,0.227678 l 0.0716,-0.0065 c 0.0455,-0.175637 0.11059,-0.390304 0.18215,-0.533416 l -0.007,-0.01951 c -0.052,-0.03252 -0.16913,-0.06505 -0.29273,-0.06505 -0.40982,0 -0.82614,0.195152 -1.06683,0.500891 -0.24719,0.312243 -0.35778,0.617981 -0.35778,0.995275 z"
         style="font-family:'Linux Biolinum O';-inkscape-font-specification:'Linux Biolinum O'"
         id="path686" />
      <path
         d="m 109.49804,43.026759 c 0,0.780608 0.5139,1.39859 1.37907,1.39859 0.85867,0 1.37908,-0.604972 1.37908,-1.457136 0,-0.884689 -0.47487,-1.463641 -1.35306,-1.463641 -0.85216,0 -1.40509,0.598467 -1.40509,1.522187 z m 1.35956,-1.261984 c 0.68954,0 0.82614,0.533416 0.82614,1.320529 0,0.624487 -0.31224,1.079842 -0.74808,1.079842 -0.68954,0 -0.86517,-0.748083 -0.86517,-1.248973 0,-0.565942 0.17563,-1.151398 0.78711,-1.151398 z"
         style="font-family:'Linux Biolinum O';-inkscape-font-specification:'Linux Biolinum O'"
         id="path688" />
      <path
         d="m 113.58973,42.187605 v -0.591962 c 0,-0.04554 -0.013,-0.06505 -0.039,-0.06505 -0.14961,0.03252 -0.3838,0.03903 -0.52691,0.01951 l -0.013,0.01951 c 0.0455,0.286223 0.0585,0.774103 0.0585,1.261984 v 0.357779 c 0,0.48788 -0.013,0.826143 -0.0585,1.170912 l 0.013,0.01951 c 0.0781,-0.01301 0.22768,-0.01951 0.30574,-0.01951 0.0781,0 0.22768,0.0065 0.30574,0.01951 l 0.013,-0.01951 c -0.052,-0.370789 -0.0585,-0.676527 -0.0585,-1.170912 v -0.338264 c 0,-0.273213 0.0781,-0.429335 0.22118,-0.644002 0.0911,-0.143112 0.24068,-0.227678 0.36428,-0.227678 0.1301,0 0.2537,0.01301 0.33826,0.09107 l 0.052,-0.01301 0.13011,-0.481375 -0.026,-0.02602 c -0.11059,-0.03253 -0.1171,-0.04554 -0.23419,-0.04554 -0.35127,0 -0.53992,0.201658 -0.82614,0.696043 z"
         style="font-family:'Linux Biolinum O';-inkscape-font-specification:'Linux Biolinum O'"
         id="path690" />
      <path
         d="m 118.45552,42.896657 -0.026,0.774104 c 0,0.08457 -0.039,0.130101 -0.0911,0.169132 -0.18214,0.136606 -0.40331,0.253697 -0.59847,0.253697 -0.29272,0 -0.48137,-0.195152 -0.48137,-0.396809 0,-0.292728 0.1366,-0.513901 0.644,-0.650507 z m 0,1.151398 c 0.0716,0.260203 0.26671,0.377294 0.5074,0.377294 0.16262,0 0.36428,-0.03903 0.5139,-0.201657 l -0.0455,-0.156122 c -0.0716,0.02602 -0.1301,0.03252 -0.17564,0.03252 -0.065,0 -0.14961,-0.01301 -0.19515,-0.05204 -0.065,-0.05855 -0.10408,-0.214668 -0.10408,-0.507396 0,-0.188647 0.0195,-0.91071 0.0195,-0.982265 0,-0.878185 -0.57895,-1.053822 -1.07334,-1.053822 -0.49438,0 -0.79362,0.240688 -0.95624,0.377294 l -0.0195,0.02602 0.11059,0.435839 0.0846,0.0065 c 0.18214,-0.292728 0.40332,-0.552931 0.71556,-0.552931 0.23418,0 0.62449,0.03253 0.62449,0.767599 0,0.04554 -0.026,0.07156 -0.0455,0.07806 l -0.60497,0.136606 c -0.66352,0.149617 -1.07984,0.500891 -1.07984,0.943235 0,0.481375 0.33176,0.702548 0.81313,0.702548 0.35778,0 0.53992,-0.08457 0.88469,-0.377294 z"
         style="font-family:'Linux Biolinum O';-inkscape-font-specification:'Linux Biolinum O'"
         id="path692" />
      <path
         d="m 122.56023,43.189386 c 0,-0.208163 0.013,-0.44885 0.013,-0.657013 0,-0.676527 -0.22118,-1.027801 -0.80663,-1.027801 -0.24719,0 -0.70905,0.09758 -1.12538,0.585457 l -0.013,-0.01952 v -0.47487 c -0.007,-0.04554 -0.013,-0.06505 -0.039,-0.06505 -0.14962,0.03252 -0.3838,0.03903 -0.52691,0.01951 l -0.013,0.01951 c 0.0455,0.286223 0.0585,0.774103 0.0585,1.261984 v 0.357779 c 0,0.48788 -0.007,0.819638 -0.0585,1.170912 l 0.013,0.01951 c 0.0781,-0.01301 0.22768,-0.01951 0.30574,-0.01951 0.0781,0 0.22768,0.0065 0.30574,0.01951 l 0.013,-0.01951 c -0.052,-0.370789 -0.0585,-0.676527 -0.0585,-1.170912 v -0.761094 c 0.33176,-0.390304 0.70905,-0.533415 0.94324,-0.533415 0.33175,0 0.46836,0.130101 0.46836,0.657012 v 0.637497 c 0,0.48788 -0.013,0.826143 -0.0585,1.170912 l 0.013,0.01951 c 0.0781,-0.01301 0.22767,-0.01951 0.30573,-0.01951 0.0781,0 0.22768,0.0065 0.30574,0.01951 l 0.013,-0.01951 c -0.052,-0.370789 -0.0585,-0.676527 -0.0585,-1.170912 z"
         style="font-family:'Linux Biolinum O';-inkscape-font-specification:'Linux Biolinum O'"
         id="path694" />
      <path
         d="m 123.25626,41.550108 c 0.2537,0.578951 1.0278,2.257259 1.26199,2.875241 -0.20817,0.48788 -0.47487,0.988771 -0.7676,1.476651 0.0651,-0.01951 0.16262,-0.03253 0.22767,-0.03253 0.0651,0 0.2537,0.01301 0.31875,0.03253 0.2472,-0.813134 1.67181,-3.916052 1.88647,-4.351892 -0.065,0.01951 -0.21466,0.01951 -0.27971,0.01951 -0.0651,0 -0.18865,0 -0.2537,-0.01951 -0.23419,0.735073 -0.53992,1.567722 -0.85867,2.244249 h -0.013 c -0.31875,-0.774103 -0.62449,-1.496166 -0.86518,-2.244249 -0.0846,0.01951 -0.22767,0.01951 -0.31874,0.01951 -0.0846,0 -0.2472,0 -0.33827,-0.01951 z"
         style="font-family:'Linux Biolinum O';-inkscape-font-specification:'Linux Biolinum O'"
         id="path696" />
      <path
         d="m 128.90267,43.742316 c 0,0.572447 -0.0325,1.34655 -0.54643,1.34655 -0.18864,0 -0.30574,-0.09758 -0.37729,-0.227677 l -0.0716,0.0065 c -0.0455,0.175637 -0.11058,0.409819 -0.18214,0.533415 l 0.007,0.01952 c 0.052,0.03252 0.16913,0.05855 0.29272,0.05855 0.40982,0 0.75459,-0.143111 1.02781,-0.494385 0.34476,-0.44885 0.40981,-0.637497 0.40981,-1.38558 v -2.133663 c 0,-0.48788 0.013,-0.956245 0.0651,-1.301014 l -0.007,-0.01951 c -0.0781,0.01301 -0.2602,0.01951 -0.33826,0.01951 -0.0781,0 -0.2537,-0.0065 -0.33176,-0.01951 l -0.013,0.01951 c 0.052,0.370789 0.0651,0.813134 0.0651,1.301014 z"
         style="font-family:'Linux Biolinum O';-inkscape-font-specification:'Linux Biolinum O'"
         id="path698" />
      <path
         d="m 131.6478,44.139126 c -0.36428,0 -0.83264,-0.318749 -1.0343,-0.702548 l -0.065,0.0065 c -0.026,0.234183 -0.0976,0.47487 -0.14962,0.670022 l 0.013,0.01952 c 0,0 0.42283,0.292728 1.18392,0.292728 0.80013,0 1.41811,-0.48788 1.41811,-1.242469 0,-0.754588 -0.644,-1.099356 -1.16441,-1.301014 -0.33176,-0.123596 -0.79362,-0.312243 -0.79362,-0.852164 0,-0.234182 0.1301,-0.494385 0.29924,-0.585456 0.11058,-0.05855 0.24719,-0.07806 0.39681,-0.07806 0.35777,0 0.70905,0.279718 0.88469,0.683032 l 0.065,-0.0065 c 0.026,-0.234182 0.0911,-0.455355 0.14961,-0.650507 l -0.013,-0.01951 c 0,0 -0.27321,-0.292728 -1.0343,-0.292728 -0.17564,0 -0.37079,0.03252 -0.55944,0.110586 -0.3838,0.162627 -0.71556,0.539921 -0.71556,1.014791 0,0.683032 0.57895,1.001781 1.11887,1.229458 0.42283,0.175637 0.7611,0.390305 0.7611,0.943236 0,0.48788 -0.3773,0.761093 -0.7611,0.761093 z"
         style="font-family:'Linux Biolinum O';-inkscape-font-specification:'Linux Biolinum O'"
         id="path700" />
      <path
         d="m 136.04524,42.447808 c 0.14311,-0.344769 0.52691,-0.644002 0.78061,-0.644002 0.44234,0 0.67002,0.403314 0.67002,1.138387 0,0.533416 -0.14962,1.222953 -0.84566,1.222953 -0.10408,0 -0.37729,-0.02602 -0.60497,-0.292728 z m 0,-0.377295 v -0.47487 c 0,-0.04554 -0.013,-0.06505 -0.039,-0.06505 -0.14962,0.03252 -0.3838,0.03903 -0.52691,0.01951 l -0.013,0.01951 c 0.0455,0.286223 0.0585,0.774103 0.0585,1.261984 v 1.736853 c 0,0.487881 -0.013,0.956246 -0.0585,1.301014 l 0.013,0.01952 c 0.0781,-0.01301 0.22767,-0.01952 0.30574,-0.01952 0.0781,0 0.22767,0.0065 0.30573,0.01952 l 0.013,-0.01952 c -0.052,-0.370789 -0.0585,-0.806628 -0.0585,-1.301014 v -0.286223 c 0.16913,0.09107 0.40982,0.143112 0.644,0.143112 0.85867,0 1.37908,-0.650507 1.37908,-1.567722 0,-0.689538 -0.40332,-1.353055 -1.13189,-1.353055 -0.25369,0 -0.57895,0.130102 -0.87818,0.585457 z"
         style="font-family:'Linux Biolinum O';-inkscape-font-specification:'Linux Biolinum O'"
         id="path702" />
      <path
         d="m 139.47992,42.187605 v -0.591962 c 0,-0.04554 -0.013,-0.06505 -0.039,-0.06505 -0.14962,0.03252 -0.3838,0.03903 -0.52691,0.01951 l -0.013,0.01951 c 0.0455,0.286223 0.0585,0.774103 0.0585,1.261984 v 0.357779 c 0,0.48788 -0.013,0.826143 -0.0585,1.170912 l 0.013,0.01951 c 0.0781,-0.01301 0.22767,-0.01951 0.30573,-0.01951 0.0781,0 0.22768,0.0065 0.30574,0.01951 l 0.013,-0.01951 c -0.052,-0.370789 -0.0585,-0.676527 -0.0585,-1.170912 v -0.338264 c 0,-0.273213 0.0781,-0.429335 0.22117,-0.644002 0.0911,-0.143112 0.24069,-0.227678 0.36428,-0.227678 0.1301,0 0.2537,0.01301 0.33827,0.09107 l 0.052,-0.01301 0.1301,-0.481375 -0.026,-0.02602 c -0.11059,-0.03253 -0.11709,-0.04554 -0.23418,-0.04554 -0.35128,0 -0.53993,0.201658 -0.82615,0.696043 z"
         style="font-family:'Linux Biolinum O';-inkscape-font-specification:'Linux Biolinum O'"
         id="path704" />
      <path
         d="m 140.89803,43.026759 c 0,0.780608 0.5139,1.39859 1.37907,1.39859 0.85867,0 1.37908,-0.604972 1.37908,-1.457136 0,-0.884689 -0.47487,-1.463641 -1.35306,-1.463641 -0.85216,0 -1.40509,0.598467 -1.40509,1.522187 z m 1.35956,-1.261984 c 0.68953,0 0.82614,0.533416 0.82614,1.320529 0,0.624487 -0.31224,1.079842 -0.74808,1.079842 -0.68954,0 -0.86518,-0.748083 -0.86518,-1.248973 0,-0.565942 0.17564,-1.151398 0.78712,-1.151398 z"
         style="font-family:'Linux Biolinum O';-inkscape-font-specification:'Linux Biolinum O'"
         id="path706" />
      <path
         d="m 144.48882,40.476771 c 0,0.175637 0.15612,0.331759 0.33176,0.331759 0.17564,0 0.33176,-0.156122 0.33176,-0.331759 0,-0.175637 -0.15612,-0.331758 -0.33176,-0.331758 -0.17564,0 -0.33176,0.156121 -0.33176,0.331758 z m 0.59847,2.250755 c 0,-0.487881 0.013,-0.722063 0.0585,-1.118873 0,-0.05854 -0.013,-0.06505 -0.0585,-0.06505 -0.14962,0.01952 -0.42934,0.01952 -0.56594,0.0065 l -0.013,0.01951 c 0.039,0.279718 0.0585,0.774103 0.0585,1.261984 v 0.904204 c 0,0.891195 -0.0455,1.639278 -0.40982,1.639278 -0.18864,0 -0.31874,-0.162627 -0.3903,-0.292728 l -0.10408,0.02602 c 0,0.175637 0,0.481375 -0.026,0.578951 l 0.006,0.01952 c 0.052,0.03252 0.15612,0.05855 0.27972,0.05855 0.40982,0 0.69604,-0.240687 0.87819,-0.52691 0.19515,-0.312244 0.28622,-0.683033 0.28622,-1.658793 z"
         style="font-family:'Linux Biolinum O';-inkscape-font-specification:'Linux Biolinum O'"
         id="path708" />
      <path
         d="m 146.48588,42.584414 c 0.11058,-0.676527 0.53341,-0.819639 0.74158,-0.819639 0.25369,0 0.54642,0.240688 0.54642,0.728568 0,0.05855 -0.026,0.09107 -0.0911,0.09107 z m 1.73685,1.099357 c -0.22768,0.247193 -0.53341,0.357779 -0.89119,0.357779 -0.22768,0 -0.53342,-0.08457 -0.70905,-0.370789 -0.1171,-0.182142 -0.15613,-0.442345 -0.15613,-0.826144 h 1.76938 c 0.0716,0 0.11709,-0.03903 0.11709,-0.110586 0,-0.546426 -0.2667,-1.229459 -1.12537,-1.229459 -0.67003,0 -1.33354,0.539921 -1.33354,1.496166 0,0.370789 0.0716,0.735073 0.29273,0.995276 0.22117,0.273213 0.59196,0.429335 1.0343,0.429335 0.46837,0 0.88469,-0.240688 1.13188,-0.578951 z"
         style="font-family:'Linux Biolinum O';-inkscape-font-specification:'Linux Biolinum O'"
         id="path710" />
      <path
         d="m 150.29134,41.764775 c 0.24719,0 0.47487,0.188647 0.6505,0.481375 l 0.0846,-0.0065 0.14962,-0.533415 -0.013,-0.01952 c -0.20166,-0.104081 -0.53992,-0.182142 -0.86518,-0.182142 -0.67653,0 -1.38558,0.552931 -1.38558,1.437621 0,0.91071 0.5139,1.483156 1.30752,1.483156 0.39031,0 0.69604,-0.130102 0.95625,-0.46186 l -0.1236,-0.136607 h -0.026 c -0.24719,0.221173 -0.45535,0.273213 -0.69604,0.273213 -0.47487,0 -0.84566,-0.429334 -0.84566,-1.190427 0,-0.715558 0.37729,-1.144893 0.80663,-1.144893 z"
         style="font-family:'Linux Biolinum O';-inkscape-font-specification:'Linux Biolinum O'"
         id="path712" />
      <path
         d="m 152.07373,41.569623 c -0.13661,0 -0.27321,0 -0.35127,-0.01301 -0.0455,0.110586 -0.0846,0.169132 -0.14311,0.266708 l 0.0325,0.04554 c 0.11059,-0.0065 0.31224,-0.0065 0.46186,-0.01301 v 0.891195 c 0,0.390304 -0.0195,0.858669 -0.0195,1.053821 0,0.42283 0.27321,0.624487 0.57244,0.624487 0.27322,0 0.48138,-0.06505 0.75459,-0.240688 l -0.0846,-0.156121 c -0.19515,0.06505 -0.34476,0.07156 -0.50739,0.04554 -0.15612,-0.01951 -0.21467,-0.175637 -0.21467,-0.533416 0,-0.195152 0.0195,-0.47487 0.0195,-0.865174 v -0.819639 h 0.24719 c 0.15612,0 0.37729,0.0065 0.46836,0.01301 0.0195,-0.104081 0.039,-0.169132 0.0781,-0.266708 l -0.0325,-0.04554 c -0.11709,0.0065 -0.30574,0.01301 -0.45535,0.01301 h -0.30574 c 0,-0.481375 0,-0.572446 0.0325,-0.94974 0,-0.04554 -0.0195,-0.06505 -0.0585,-0.06505 -0.16914,0.06505 -0.2472,0.136607 -0.45536,0.162627 l -0.013,0.01951 c -0.013,0.227678 -0.026,0.455355 -0.026,0.832649 z"
         style="font-family:'Linux Biolinum O';-inkscape-font-specification:'Linux Biolinum O'"
         id="path714" />
    </g>
  </g>
</svg>
