<?xml version="1.0" encoding="UTF-8" standalone="no"?>
<!-- Created with Inkscape (http://www.inkscape.org/) -->

<svg
   width="450"
   height="210"
   viewBox="0 0 119.06324 55.562845"
   version="1.1"
   id="svg5"
   xmlns="http://www.w3.org/2000/svg"
   xmlns:svg="http://www.w3.org/2000/svg">
  <defs
     id="defs2" />
  <g
     id="layer1">
    <g
       id="g496"
       style="fill:#ac9d93;stroke-width:3.08409">
      <path
         id="path484"
         style="fill:#8686bf;fill-rule:evenodd;stroke:none;stroke-linejoin:round"
         d="m 49.88853,20.143594 -9.95708,5.748706 9.973944,5.758437 9.95708,-5.748706 z"
         points="39.93145,25.8923 49.905394,31.650737 59.862474,25.902031 49.88853,20.143594 " />
      <path
         id="path486"
         style="fill:#353564;fill-rule:evenodd;stroke:none;stroke-linejoin:round"
         d="m 49.88853,20.143594 9.973944,5.758437 V 14.277217 L 49.88853,8.5187799 Z"
         points="59.862474,25.902031 59.862474,14.277217 49.88853,8.5187799 49.88853,20.143594 " />
      <path
         id="path488"
         style="fill:#4d4d9f;fill-rule:evenodd;stroke:none;stroke-linejoin:round"
         d="M 49.88853,20.143594 39.93145,25.8923 V 14.267485 l 9.95708,-5.7487051 z"
         points="39.93145,25.8923 39.93145,14.267485 49.88853,8.5187799 49.88853,20.143594 " />
      <path
         id="path490"
         style="fill:#009200;fill-opacity:1;fill-rule:evenodd;stroke:none;stroke-linejoin:round"
         d="m 59.862474,25.902031 -9.95708,5.748706 0,-11.624815 9.95708,-5.748705 z"
         points="49.905394,31.650737 49.905394,20.025922 59.862474,14.277217 59.862474,25.902031 " />
      <path
         id="path492"
         style="fill:#00a400;fill-opacity:1;fill-rule:evenodd;stroke:none;stroke-linejoin:round"
         d="m 39.93145,25.8923 9.973944,5.758437 0,-11.624815 -9.973944,-5.758437 z"
         points="49.905394,31.650737 49.905394,20.025922 39.93145,14.267485 39.93145,25.8923 " />
      <path
         id="path494"
         style="fill:#00a900;fill-opacity:1;fill-rule:evenodd;stroke:none;stroke-linejoin:round"
         d="m 49.88853,8.5187799 -9.95708,5.7487051 9.973944,5.758437 9.95708,-5.748705 z"
         points="39.93145,14.267485 49.905394,20.025922 59.862474,14.277217 49.88853,8.5187799 " />
    </g>
    <g
       id="g69"
       style="fill:#ac9d93;stroke-width:3.08409">
      <path
         id="path75"
         style="fill:#8686bf;fill-rule:evenodd;stroke:none;stroke-linejoin:round"
         d="m 21.64056,20.265521 -9.95708,5.748705 9.973945,5.758437 9.95708,-5.748705 z"
         points="11.68348,26.014226 21.657425,31.772663 31.614505,26.023958 21.64056,20.265521 " />
      <path
         id="path71"
         style="fill:#353564;fill-rule:evenodd;stroke:none;stroke-linejoin:round"
         d="m 21.64056,20.265521 9.973945,5.758437 0,-11.624814 -9.973945,-5.7584378 z"
         points="31.614505,26.023958 31.614505,14.399144 21.64056,8.6407062 21.64056,20.265521 " />
      <path
         id="path73"
         style="fill:#4d4d9f;fill-rule:evenodd;stroke:none;stroke-linejoin:round"
         d="m 21.64056,20.265521 -9.95708,5.748705 0,-11.624815 9.95708,-5.7487048 z"
         points="11.68348,26.014226 11.68348,14.389411 21.64056,8.6407062 21.64056,20.265521 " />
      <path
         id="path79"
         style="fill:#afafde;fill-rule:evenodd;stroke:none;stroke-linejoin:round"
         d="m 31.614505,26.023958 -9.95708,5.748705 0,-11.624814 9.95708,-5.748705 z"
         points="21.657425,31.772663 21.657425,20.147849 31.614505,14.399144 31.614505,26.023958 " />
      <path
         id="path77"
         style="fill:#d7d7ff;fill-rule:evenodd;stroke:none;stroke-linejoin:round"
         d="m 11.68348,26.014226 9.973945,5.758437 0,-11.624814 -9.973945,-5.758438 z"
         points="21.657425,31.772663 21.657425,20.147849 11.68348,14.389411 11.68348,26.014226 " />
      <path
         id="path81"
         style="fill:#e9e9ff;fill-rule:evenodd;stroke:none;stroke-linejoin:round"
         d="m 21.64056,8.6407062 -9.95708,5.7487048 9.973945,5.758438 9.95708,-5.748705 z"
         points="11.68348,14.389411 21.657425,20.147849 31.614505,14.399144 21.64056,8.6407062 " />
    </g>
    <g
       id="g370"
       style="fill:#ac9d93;stroke-width:3.08409">
      <path
         id="path358"
         style="fill:#8686bf;fill-rule:evenodd;stroke:none;stroke-linejoin:round"
         d="m 21.64056,20.265521 -9.95708,5.748705 9.973945,5.758437 9.95708,-5.748705 z"
         points="11.68348,26.014226 21.657425,31.772663 31.614505,26.023958 21.64056,20.265521 " />
      <path
         id="path360"
         style="fill:#353564;fill-rule:evenodd;stroke:none;stroke-linejoin:round"
         d="m 21.64056,20.265521 9.973945,5.758437 0,-11.624814 -9.973945,-5.7584378 z"
         points="31.614505,26.023958 31.614505,14.399144 21.64056,8.6407062 21.64056,20.265521 " />
      <path
         id="path362"
         style="fill:#4d4d9f;fill-rule:evenodd;stroke:none;stroke-linejoin:round"
         d="m 21.64056,20.265521 -9.95708,5.748705 0,-11.624815 9.95708,-5.7487048 z"
         points="11.68348,26.014226 11.68348,14.389411 21.64056,8.6407062 21.64056,20.265521 " />
      <path
         id="path364"
         style="fill:#afafde;fill-rule:evenodd;stroke:none;stroke-linejoin:round"
         d="m 31.614505,26.023958 -9.95708,5.748705 0,-11.624814 9.95708,-5.748705 z"
         points="21.657425,31.772663 21.657425,20.147849 31.614505,14.399144 31.614505,26.023958 " />
      <path
         id="path366"
         style="fill:#d7d7ff;fill-rule:evenodd;stroke:none;stroke-linejoin:round"
         d="m 11.68348,26.014226 9.973945,5.758437 0,-11.624814 -9.973945,-5.758438 z"
         points="21.657425,31.772663 21.657425,20.147849 11.68348,14.389411 11.68348,26.014226 " />
      <path
         id="path368"
         style="fill:#e9e9ff;fill-rule:evenodd;stroke:none;stroke-linejoin:round"
         d="m 21.64056,8.6407062 -9.95708,5.7487048 9.973945,5.758438 9.95708,-5.748705 z"
         points="11.68348,14.389411 21.657425,20.147849 31.614505,14.399144 21.64056,8.6407062 " />
    </g>
    <g
       id="g386"
       style="fill:#ac9d93;stroke-width:3.08409">
      <path
         id="path374"
         style="fill:#8686bf;fill-rule:evenodd;stroke:none;stroke-linejoin:round"
         d="m 21.64056,20.265521 -9.95708,5.748705 9.973945,5.758437 9.95708,-5.748705 z"
         points="11.68348,26.014226 21.657425,31.772663 31.614505,26.023958 21.64056,20.265521 " />
      <path
         id="path376"
         style="fill:#353564;fill-rule:evenodd;stroke:none;stroke-linejoin:round"
         d="m 21.64056,20.265521 9.973945,5.758437 0,-11.624814 -9.973945,-5.7584378 z"
         points="31.614505,26.023958 31.614505,14.399144 21.64056,8.6407062 21.64056,20.265521 " />
      <path
         id="path378"
         style="fill:#4d4d9f;fill-rule:evenodd;stroke:none;stroke-linejoin:round"
         d="m 21.64056,20.265521 -9.95708,5.748705 0,-11.624815 9.95708,-5.7487048 z"
         points="11.68348,26.014226 11.68348,14.389411 21.64056,8.6407062 21.64056,20.265521 " />
      <path
         id="path380"
         style="fill:#008c00;fill-opacity:1;fill-rule:evenodd;stroke:none;stroke-linejoin:round"
         d="m 31.614505,26.023958 -9.95708,5.748705 0,-11.624814 9.95708,-5.748705 z"
         points="21.657425,31.772663 21.657425,20.147849 31.614505,14.399144 31.614505,26.023958 " />
      <path
         id="path382"
         style="fill:#009e00;fill-opacity:1;fill-rule:evenodd;stroke:none;stroke-linejoin:round"
         d="m 11.68348,26.014226 9.973945,5.758437 0,-11.624814 -9.973945,-5.758438 z"
         points="21.657425,31.772663 21.657425,20.147849 11.68348,14.389411 11.68348,26.014226 " />
      <path
         id="path384"
         style="fill:#00a900;fill-opacity:1;fill-rule:evenodd;stroke:none;stroke-linejoin:round"
         d="m 21.64056,8.6407062 -9.95708,5.7487048 9.973945,5.758438 9.95708,-5.748705 z"
         points="11.68348,14.389411 21.657425,20.147849 31.614505,14.399144 21.64056,8.6407062 " />
    </g>
    <g
       id="g402"
       style="fill:#ac9d93;stroke-width:3.08409">
      <path
         id="path390"
         style="fill:#8686bf;fill-rule:evenodd;stroke:none;stroke-linejoin:round"
         d="m 35.57024,28.147322 -9.95708,5.748705 9.973945,5.758437 9.957079,-5.748705 z"
         points="25.61316,33.896027 35.587105,39.654464 45.544184,33.905759 35.57024,28.147322 " />
      <path
         id="path392"
         style="fill:#353564;fill-rule:evenodd;stroke:none;stroke-linejoin:round"
         d="m 35.57024,28.147322 9.973944,5.758437 V 22.280945 L 35.57024,16.522507 Z"
         points="45.544184,33.905759 45.544184,22.280945 35.57024,16.522507 35.57024,28.147322 " />
      <path
         id="path394"
         style="fill:#4d4d9f;fill-rule:evenodd;stroke:none;stroke-linejoin:round"
         d="m 35.57024,28.147322 -9.95708,5.748705 0,-11.624815 9.95708,-5.748705 z"
         points="25.61316,33.896027 25.61316,22.271212 35.57024,16.522507 35.57024,28.147322 " />
      <path
         id="path396"
         style="fill:#008f00;fill-opacity:1;fill-rule:evenodd;stroke:none;stroke-linejoin:round"
         d="m 45.544184,33.905759 -9.957079,5.748705 V 28.02965 l 9.957079,-5.748705 z"
         points="35.587105,39.654464 35.587105,28.02965 45.544184,22.280945 45.544184,33.905759 " />
      <path
         id="path398"
         style="fill:#00a100;fill-opacity:1;fill-rule:evenodd;stroke:none;stroke-linejoin:round"
         d="m 25.61316,33.896027 9.973945,5.758437 V 28.02965 L 25.61316,22.271212 Z"
         points="35.587105,39.654464 35.587105,28.02965 25.61316,22.271212 25.61316,33.896027 " />
      <path
         id="path400"
         style="fill:#00a900;fill-opacity:1;fill-rule:evenodd;stroke:none;stroke-linejoin:round"
         d="m 35.57024,16.522507 -9.95708,5.748705 9.973945,5.758438 9.957079,-5.748705 z"
         points="25.61316,22.271212 35.587105,28.02965 45.544184,22.280945 35.57024,16.522507 " />
    </g>
    <g
       id="g482"
       style="fill:#ac9d93;stroke-width:3.08409">
      <path
         id="path470"
         style="fill:#8686bf;fill-rule:evenodd;stroke:none;stroke-linejoin:round"
         d="m 21.636631,36.088322 -9.95708,5.748705 9.973945,5.758437 9.957079,-5.748704 z"
         points="11.679551,41.837027 21.653496,47.595464 31.610575,41.84676 21.636631,36.088322 " />
      <path
         id="path472"
         style="fill:#353564;fill-rule:evenodd;stroke:none;stroke-linejoin:round"
         d="m 21.636631,36.088322 9.973944,5.758438 V 30.221945 l -9.973944,-5.758437 z"
         points="31.610575,41.84676 31.610575,30.221945 21.636631,24.463508 21.636631,36.088322 " />
      <path
         id="path474"
         style="fill:#4d4d9f;fill-rule:evenodd;stroke:none;stroke-linejoin:round"
         d="m 21.636631,36.088322 -9.95708,5.748705 0,-11.624814 9.95708,-5.748705 z"
         points="11.679551,41.837027 11.679551,30.212213 21.636631,24.463508 21.636631,36.088322 " />
      <path
         id="path476"
         style="fill:#008c00;fill-opacity:1;fill-rule:evenodd;stroke:none;stroke-linejoin:round"
         d="m 31.610575,41.84676 -9.957079,5.748704 0,-11.624814 9.957079,-5.748705 z"
         points="21.653496,47.595464 21.653496,35.97065 31.610575,30.221945 31.610575,41.84676 " />
      <path
         id="path478"
         style="fill:#009e00;fill-opacity:1;fill-rule:evenodd;stroke:none;stroke-linejoin:round"
         d="m 11.679551,41.837027 9.973945,5.758437 0,-11.624814 -9.973945,-5.758437 z"
         points="21.653496,47.595464 21.653496,35.97065 11.679551,30.212213 11.679551,41.837027 " />
      <path
         id="path480"
         style="fill:#00a900;fill-opacity:1;fill-rule:evenodd;stroke:none;stroke-linejoin:round"
         d="m 21.636631,24.463508 -9.95708,5.748705 9.973945,5.758437 9.957079,-5.748705 z"
         points="11.679551,30.212213 21.653496,35.97065 31.610575,30.221945 21.636631,24.463508 " />
    </g>
    <rect
       style="fill:#ffff00;fill-opacity:1;stroke-width:0.815999"
       id="rect1644"
       width="1.3732229"
       height="14.656848"
       x="41.597858"
       y="-17.168905"
       transform="rotate(59.51143)" />
    <ellipse
       style="fill:#ffff00;fill-opacity:1;stroke-width:0.815999"
       id="path1750"
       cx="50.047787"
       cy="19.846804"
       rx="2.6068275"
       ry="2.6248624" />
    <ellipse
       style="fill:#ffff00;fill-opacity:1;stroke-width:0.815999"
       id="ellipse1752"
       cx="35.804699"
       cy="27.92317"
       rx="2.6068275"
       ry="2.6248624" />
    <ellipse
       style="fill:#ffff00;fill-opacity:1;stroke-width:0.815999"
       id="ellipse1754"
       cx="21.65843"
       cy="36.129372"
       rx="2.6068275"
       ry="2.6248624" />
    <ellipse
       style="fill:#ffff00;fill-opacity:1;stroke-width:0.815999"
       id="ellipse1756"
       cx="21.289198"
       cy="19.407951"
       rx="2.6068275"
       ry="2.6248624" />
    <rect
       style="fill:#ffff00;fill-opacity:1;stroke-width:0.815999"
       id="rect1758"
       width="1.3732229"
       height="14.656848"
       x="5.8933754"
       y="-44.226437"
       transform="rotate(119.8388)" />
    <rect
       style="fill:#ffff00;fill-opacity:1;stroke-width:0.815999"
       id="rect1884"
       width="1.3732229"
       height="14.656848"
       x="41.631901"
       y="-33.149632"
       transform="rotate(59.756988)" />
    <g
       aria-label="Service"
       id="text1940"
       style="font-size:12.4601px;line-height:1.25;letter-spacing:0.389378px;word-spacing:0px;stroke-width:0.311503">
      <path
         d="m 68.24341,17.287656 c -0.697766,0 -1.594893,-0.610544 -1.981156,-1.34569 l -0.124601,0.01246 c -0.04984,0.448563 -0.186902,0.909587 -0.286583,1.28339 l 0.02492,0.03738 c 0,0 0.809906,0.560705 2.267738,0.560705 1.532592,0 2.716302,-0.934508 2.716302,-2.379879 0,-1.445372 -1.23355,-2.105757 -2.230358,-2.49202 -0.635465,-0.236742 -1.520132,-0.598085 -1.520132,-1.632273 0,-0.448564 0.249202,-0.946968 0.573164,-1.121409 0.211822,-0.112141 0.473484,-0.149522 0.760066,-0.149522 0.685306,0 1.358151,0.535785 1.694574,1.308311 l 0.124601,-0.01246 c 0.04984,-0.448564 0.174441,-0.872207 0.286582,-1.24601 l -0.02492,-0.03738 c 0,0 -0.523324,-0.560704 -1.981156,-0.560704 -0.336423,0 -0.710226,0.062301 -1.071568,0.2118217 -0.735146,0.3115023 -1.370611,1.0341883 -1.370611,1.9437753 0,1.308311 1.108948,1.918856 2.143137,2.354959 0.809906,0.336423 1.457831,0.747606 1.457831,1.806715 0,0.934507 -0.722685,1.457831 -1.457831,1.457831 z"
         style="font-family:'Linux Biolinum O';-inkscape-font-specification:'Linux Biolinum O'"
         id="path3049" />
      <path
         d="m 73.479773,14.309693 c 0.211822,-1.295851 1.021728,-1.569973 1.420452,-1.569973 0.485944,0 1.046648,0.461024 1.046648,1.395531 0,0.112141 -0.04984,0.174442 -0.174441,0.174442 z m 3.326847,2.105756 c -0.436103,0.473484 -1.021728,0.685306 -1.707034,0.685306 -0.436103,0 -1.021728,-0.161981 -1.358151,-0.710226 -0.224281,-0.348883 -0.299042,-0.847287 -0.299042,-1.582432 h 3.389147 c 0.137061,0 0.224282,-0.07476 0.224282,-0.211822 0,-1.046649 -0.510864,-2.354959 -2.155597,-2.354959 -1.283391,0 -2.554321,1.034188 -2.554321,2.865823 0,0.710226 0.137061,1.407991 0.560705,1.906395 0.423643,0.523324 1.133869,0.822367 1.981156,0.822367 0.897127,0 1.694573,-0.461024 2.168057,-1.108949 z"
         style="font-family:'Linux Biolinum O';-inkscape-font-specification:'Linux Biolinum O'"
         id="path3051" />
      <path
         d="m 80.03689,13.549626 v -1.133869 c 0,-0.08722 -0.02492,-0.124601 -0.07476,-0.124601 -0.286582,0.0623 -0.735146,0.07476 -1.009268,0.03738 l -0.02492,0.03738 c 0.08722,0.548244 0.11214,1.482752 0.11214,2.417259 v 0.685306 c 0,0.934507 -0.02492,1.582433 -0.11214,2.242818 l 0.02492,0.03738 c 0.149521,-0.02492 0.436103,-0.03738 0.585625,-0.03738 0.149521,0 0.436103,0.01246 0.585624,0.03738 l 0.02492,-0.03738 c -0.09968,-0.710226 -0.11214,-1.295851 -0.11214,-2.242818 v -0.647925 c 0,-0.523325 0.149521,-0.822367 0.423643,-1.23355 0.174441,-0.274122 0.461024,-0.436104 0.697766,-0.436104 0.249202,0 0.485943,0.02492 0.647925,0.174442 l 0.09968,-0.02492 0.249202,-0.922047 -0.04984,-0.04984 c -0.211822,-0.0623 -0.224282,-0.08722 -0.448563,-0.08722 -0.672846,0 -1.034189,0.386263 -1.582433,1.333231 z"
         style="font-family:'Linux Biolinum O';-inkscape-font-specification:'Linux Biolinum O'"
         id="path3053" />
      <path
         d="m 85.472594,17.74868 c 0.124601,-0.03738 0.261662,-0.03738 0.386263,-0.03738 0.124601,0 0.261663,0 0.373803,0.03738 0.647926,-1.819174 1.420452,-3.588509 2.230358,-5.420143 -0.11214,0.03738 -0.348882,0.03738 -0.473483,0.03738 -0.124601,0 -0.311503,0 -0.423644,-0.03738 -0.510864,1.420451 -0.946967,3.040264 -1.520132,4.261354 h -0.02492 c -0.623005,-1.420452 -1.021728,-2.828443 -1.470292,-4.261354 -0.161981,0.03738 -0.448564,0.03738 -0.623005,0.03738 -0.199362,0 -0.523324,0 -0.722686,-0.03738 0.834827,1.831634 1.569973,3.600969 2.267738,5.420143 z"
         style="font-family:'Linux Biolinum O';-inkscape-font-specification:'Linux Biolinum O'"
         id="path3055" />
      <path
         d="m 90.098407,10.27262 c 0,0.336423 0.299042,0.635465 0.635465,0.635465 0.336423,0 0.635465,-0.299042 0.635465,-0.635465 0,-0.3364226 -0.299042,-0.635465 -0.635465,-0.635465 -0.336423,0 -0.635465,0.2990424 -0.635465,0.635465 z m 0.124601,4.510556 v 0.685306 c 0,0.934507 -0.02492,1.569972 -0.112141,2.242818 l 0.02492,0.03738 c 0.149521,-0.02492 0.436104,-0.03738 0.585625,-0.03738 0.149521,0 0.436103,0.01246 0.585624,0.03738 l 0.02492,-0.03738 c -0.09968,-0.697766 -0.112141,-1.295851 -0.112141,-2.242818 v -0.884667 c 0,-0.934508 0.02492,-1.383071 0.112141,-2.143137 0,-0.112141 -0.02492,-0.124601 -0.112141,-0.124601 -0.286583,0.03738 -0.822367,0.03738 -1.084029,0.01246 l -0.02492,0.03738 c 0.07476,0.535784 0.112141,1.482752 0.112141,2.417259 z"
         style="font-family:'Linux Biolinum O';-inkscape-font-specification:'Linux Biolinum O'"
         id="path3057" />
      <path
         d="m 95.845629,12.73972 c 0.473484,0 0.909588,0.361343 1.24601,0.922047 l 0.161982,-0.01246 0.286582,-1.021728 -0.02492,-0.03738 c -0.386263,-0.199362 -1.034189,-0.348883 -1.657194,-0.348883 -1.29585,0 -2.654001,1.059108 -2.654001,2.753682 0,1.744414 0.984348,2.840903 2.50448,2.840903 0.747606,0 1.333231,-0.249202 1.831635,-0.884667 l -0.236742,-0.261662 h -0.04984 c -0.473484,0.423643 -0.872207,0.523324 -1.333231,0.523324 -0.909587,0 -1.619813,-0.822367 -1.619813,-2.280198 0,-1.370611 0.722686,-2.192978 1.545052,-2.192978 z"
         style="font-family:'Linux Biolinum O';-inkscape-font-specification:'Linux Biolinum O'"
         id="path3059" />
      <path
         d="m 100.02289,14.309693 c 0.21182,-1.295851 1.02173,-1.569973 1.42045,-1.569973 0.48595,0 1.04665,0.461024 1.04665,1.395531 0,0.112141 -0.0498,0.174442 -0.17444,0.174442 z m 3.32685,2.105756 c -0.43611,0.473484 -1.02173,0.685306 -1.70704,0.685306 -0.4361,0 -1.02172,-0.161981 -1.35815,-0.710226 -0.22428,-0.348883 -0.29904,-0.847287 -0.29904,-1.582432 h 3.38915 c 0.13706,0 0.22428,-0.07476 0.22428,-0.211822 0,-1.046649 -0.51087,-2.354959 -2.1556,-2.354959 -1.28339,0 -2.554319,1.034188 -2.554319,2.865823 0,0.710226 0.137061,1.407991 0.560705,1.906395 0.423643,0.523324 1.133864,0.822367 1.981154,0.822367 0.89713,0 1.69458,-0.461024 2.16806,-1.108949 z"
         style="font-family:'Linux Biolinum O';-inkscape-font-specification:'Linux Biolinum O'"
         id="path3061" />
    </g>
    <g
       aria-label="GRAPH"
       id="text1944"
       style="font-size:12.4601px;line-height:1.25;letter-spacing:0px;word-spacing:0px;stroke-width:0.311503">
      <path
         d="m 71.535217,28.463851 v 0.560704 c -0.423643,0.398723 -1.158789,0.473484 -1.831635,0.473484 -2.217898,0 -3.040264,-2.006076 -3.040264,-3.650809 0,-2.180518 1.20863,-3.576049 2.890743,-3.576049 1.121409,0 2.080837,0.623005 2.641541,1.569972 l 0.149521,-0.01246 c 0.03738,-0.635465 0.112141,-0.971887 0.249202,-1.445371 l -0.02492,-0.03738 c 0,0 -1.32077,-0.623005 -2.840903,-0.623005 -2.143137,0 -4.348575,1.507673 -4.348575,4.248895 0,2.155597 1.532593,4.074452 4.037073,4.074452 1.445372,0 2.4671,-0.411183 3.314387,-1.121409 v -0.03738 C 72.619246,28.762893 72.606786,28.42647 72.606786,28.289409 v -0.07476 c 0,-0.934508 0.02492,-1.457832 0.124601,-2.118217 l -0.01246,-0.03738 c 0,0 -0.211821,0.03738 -0.647925,0.03738 -0.423643,0 -0.635465,-0.03738 -0.635465,-0.03738 l -0.02492,0.03738 c 0.09968,0.710225 0.124601,1.432911 0.124601,2.367419 z"
         style="font-family:'Linux Biolinum O';-inkscape-font-specification:'Linux Biolinum O'"
         id="path3113" />
      <path
         d="m 76.033301,26.358094 c 0.436104,0 0.809907,-0.01246 1.146329,-0.03738 0.348883,0.411184 0.623005,0.897128 0.946968,1.407992 0.448564,0.722686 1.046648,1.806714 1.183709,2.230358 0.236742,-0.03738 0.510865,-0.03738 0.747606,-0.03738 0.249203,0 0.498405,0 0.747607,0.03738 l 0.02492,-0.03738 c -0.623005,-0.697765 -1.881475,-2.666461 -2.666462,-3.72557 0.336423,-0.0623 0.585625,-0.137061 0.760066,-0.236741 0.672846,-0.336423 1.24601,-0.984348 1.24601,-2.006077 0,-0.623005 -0.211821,-1.133869 -0.660385,-1.557512 -0.598085,-0.560705 -1.545052,-0.598085 -2.330039,-0.598085 -0.311502,0 -1.30831,0.08722 -1.682113,0.08722 -0.149521,0 -0.485944,-0.01246 -0.635465,-0.03738 l -0.02492,0.03738 c 0.09968,0.710225 0.124601,1.557512 0.124601,2.49202 v 3.052724 c 0,0.934508 -0.02492,1.819175 -0.124601,2.49202 l 0.02492,0.03738 c 0.149521,-0.02492 0.485944,-0.03738 0.635465,-0.03738 0.149521,0 0.485944,0.01246 0.635465,0.03738 l 0.02492,-0.03738 c -0.09968,-0.710225 -0.124601,-1.557512 -0.124601,-2.49202 z m 1.158789,-4.024613 c 0.760067,0 1.781795,0.286583 1.781795,1.632273 0,1.520133 -1.009268,1.893936 -2.217898,1.893936 h -0.722686 v -2.977964 c 0,-0.485944 0.03738,-0.548245 1.158789,-0.548245 z"
         style="font-family:'Linux Biolinum O';-inkscape-font-specification:'Linux Biolinum O'"
         id="path3115" />
      <path
         d="m 86.213208,26.495155 c -0.411184,0.01246 -0.934508,0.02492 -1.295851,0.02492 -0.361343,0 -1.034188,-0.01246 -1.30831,-0.02492 l 1.32077,-3.065185 h 0.02492 c 0.510865,1.17125 0.922048,2.192978 1.258471,3.065185 z m -2.840903,0.585625 c 0.311502,-0.02492 1.171249,-0.03738 1.607353,-0.03738 0.473483,0 1.158789,0.01246 1.457831,0.03738 0.610545,1.632273 0.884667,2.60416 0.971888,2.878283 0.211822,-0.03738 0.411183,-0.03738 0.623005,-0.03738 0.211822,0 0.535784,0 0.747606,0.03738 -0.623005,-1.25847 -2.267738,-5.507365 -3.414067,-8.236127 h -0.348883 c -1.19617,2.766143 -2.417259,5.482445 -3.67573,8.236127 0.149522,-0.03738 0.299043,-0.03738 0.436104,-0.03738 0.137061,0 0.411183,0 0.560704,0.03738 0.199362,-0.760066 0.585625,-1.781795 1.034189,-2.878283 z"
         style="font-family:'Linux Biolinum O';-inkscape-font-specification:'Linux Biolinum O'"
         id="path3117" />
      <path
         d="m 91.346766,22.881726 c 0,-0.361343 0.224282,-0.548245 1.121409,-0.548245 0.859747,0 1.769335,0.236742 1.769335,1.719494 0,1.432912 -0.697766,1.893935 -1.906396,1.893935 -0.311502,0 -0.822366,-0.03738 -0.984348,-0.124601 z m -1.071568,1.495212 v 3.052724 c 0,0.934508 -0.02492,1.819175 -0.124601,2.49202 l 0.02492,0.03738 c 0.149521,-0.02492 0.485944,-0.03738 0.635465,-0.03738 0.149521,0 0.485944,0.01246 0.635465,0.03738 l 0.02492,-0.03738 c -0.09968,-0.710225 -0.124601,-1.557512 -0.124601,-2.49202 v -1.071568 c 0.274122,0.08722 0.610545,0.124601 1.046649,0.124601 2.267738,0 3.052724,-1.432912 3.052724,-2.49202 0,-0.922048 -0.585624,-2.192978 -2.890743,-2.192978 -0.323963,0 -1.370611,0.08722 -1.744414,0.08722 -0.149521,0 -0.485944,-0.01246 -0.635465,-0.03738 l -0.02492,0.03738 c 0.09968,0.710225 0.124601,1.557512 0.124601,2.49202 z"
         style="font-family:'Linux Biolinum O';-inkscape-font-specification:'Linux Biolinum O'"
         id="path3119" />
      <path
         d="m 102.62316,24.376938 v 0.996808 h -4.311199 v -0.996808 c 0,-0.934508 0.02492,-1.831635 0.124601,-2.49202 l -0.01246,-0.03738 c -0.149521,0.02492 -0.498404,0.03738 -0.647925,0.03738 -0.149522,0 -0.485944,-0.01246 -0.635465,-0.03738 l -0.02492,0.03738 c 0.09968,0.710225 0.124601,1.557512 0.124601,2.49202 v 3.052724 c 0,0.934508 -0.02492,1.819175 -0.124601,2.49202 l 0.01246,0.03738 c 0.149522,-0.02492 0.498404,-0.03738 0.647926,-0.03738 0.149521,0 0.485944,0.01246 0.635465,0.03738 l 0.02492,-0.03738 c -0.09968,-0.710225 -0.124601,-1.557512 -0.124601,-2.49202 V 25.92199 h 4.311199 v 1.507672 c 0,0.934508 -0.0249,1.819175 -0.12461,2.49202 l 0.0125,0.03738 c 0.14953,-0.02492 0.49841,-0.03738 0.64793,-0.03738 0.14952,0 0.48594,0.01246 0.63547,0.03738 l 0.0249,-0.03738 c -0.0997,-0.710225 -0.12461,-1.557512 -0.12461,-2.49202 v -3.052724 c 0,-0.934508 0.0249,-1.831635 0.12461,-2.49202 l -0.0125,-0.03738 c -0.14953,0.02492 -0.49841,0.03738 -0.64793,0.03738 -0.14952,0 -0.48594,-0.01246 -0.63547,-0.03738 l -0.0249,0.03738 c 0.0997,0.710225 0.12461,1.557512 0.12461,2.49202 z"
         style="font-family:'Linux Biolinum O';-inkscape-font-specification:'Linux Biolinum O'"
         id="path3121" />
    </g>
    <g
       aria-label="Dependency Injection for any JS project"
       id="text2034"
       style="font-size:3.70115px;line-height:1.25;letter-spacing:0px;word-spacing:0px;stroke-width:0.092529">
      <path
         d="M 40.933284,42.579161 V 41.29116 c 0,-0.09623 0.09623,-0.111034 0.233172,-0.111034 0.599587,0 0.721724,0.436736 0.721724,0.862368 0,0.562575 -0.262781,0.647701 -0.651402,0.647701 -0.273885,0 -0.303494,-0.02221 -0.303494,-0.111034 z m -0.177655,-1.535978 c -0.09623,0 -0.199863,-0.0111 -0.199863,-0.0111 l -0.0074,0.0111 c 0.02221,0.155449 0.02961,0.344207 0.02961,0.555173 v 0.67731 c 0,0.210966 -0.0074,0.407127 -0.02961,0.555173 l 0.0037,0.0111 c 0,0 0.107334,-0.0111 0.203564,-0.0111 0.222069,0 0.281287,0.0074 0.566276,0.0074 0.392321,0 0.969701,-0.177655 0.969701,-0.862368 0,-0.51446 -0.488552,-0.943793 -1.021518,-0.943793 -0.199862,0 -0.310896,0.0111 -0.514459,0.0111 z M 40.326295,40.32516 h 2.117058 c 0.222069,0 0.307195,0.122138 0.307195,0.344207 v 2.50938 c 0,0.222069 -0.08513,0.307195 -0.307195,0.307195 h -2.117058 c -0.222069,0 -0.344207,-0.08513 -0.344207,-0.307195 v -2.50938 c 0,-0.222069 0.122138,-0.344207 0.344207,-0.344207 z m 2.779564,2.968323 v -2.624116 c 0,-0.333103 -0.218368,-0.477448 -0.551472,-0.477448 h -2.228092 c -0.299793,0 -0.477448,0.170253 -0.477448,0.477448 v 2.624116 c 0,0.333103 0.144345,0.473747 0.477448,0.473747 h 2.339127 c 0.333103,0 0.440437,-0.140644 0.440437,-0.473747 z"
         style="font-family:'Linux Biolinum Keyboard O';-inkscape-font-specification:'Linux Biolinum Keyboard O'"
         id="path3124" />
      <path
         d="m 43.938619,41.972172 c 0.06292,-0.38492 0.303494,-0.466345 0.421931,-0.466345 0.144345,0 0.310896,0.136943 0.310896,0.414529 0,0.03331 -0.0148,0.05182 -0.05182,0.05182 z m 0.988207,0.625494 c -0.12954,0.140644 -0.303494,0.203564 -0.507058,0.203564 -0.12954,0 -0.303494,-0.04811 -0.403425,-0.210966 -0.06662,-0.103632 -0.08883,-0.251678 -0.08883,-0.470046 h 1.006713 c 0.04071,0 0.06662,-0.02221 0.06662,-0.06292 0,-0.310896 -0.151747,-0.699517 -0.640299,-0.699517 -0.381219,0 -0.758736,0.307196 -0.758736,0.851265 0,0.210965 0.04071,0.41823 0.166552,0.566276 0.125839,0.155448 0.336805,0.244275 0.588483,0.244275 0.266483,0 0.503356,-0.136942 0.644,-0.329402 z"
         style="font-family:'Linux Biolinum O';-inkscape-font-specification:'Linux Biolinum O'"
         id="path3126" />
      <path
         d="m 45.752179,41.894448 c 0.08143,-0.196161 0.299793,-0.366414 0.444138,-0.366414 0.251678,0 0.381218,0.229471 0.381218,0.647701 0,0.303495 -0.08513,0.695816 -0.481149,0.695816 -0.05922,0 -0.214667,-0.0148 -0.344207,-0.166551 z m 0,-0.214667 v -0.270184 c 0,-0.02591 -0.0074,-0.03701 -0.02221,-0.03701 -0.08513,0.01851 -0.218368,0.02221 -0.299793,0.0111 l -0.0074,0.0111 c 0.02591,0.16285 0.03331,0.440436 0.03331,0.718023 v 0.988207 c 0,0.277586 -0.0074,0.544069 -0.03331,0.74023 l 0.0074,0.0111 c 0.04441,-0.0074 0.12954,-0.0111 0.173954,-0.0111 0.04441,0 0.12954,0.0037 0.173954,0.0111 l 0.0074,-0.0111 c -0.02961,-0.210966 -0.03331,-0.458943 -0.03331,-0.74023 v -0.162851 c 0.09623,0.05182 0.233172,0.08142 0.366414,0.08142 0.488552,0 0.784644,-0.370115 0.784644,-0.891977 0,-0.392322 -0.229472,-0.769839 -0.644001,-0.769839 -0.144344,0 -0.329402,0.07402 -0.499655,0.333104 z"
         style="font-family:'Linux Biolinum O';-inkscape-font-specification:'Linux Biolinum O'"
         id="path3128" />
      <path
         d="m 47.576848,41.972172 c 0.06292,-0.38492 0.303494,-0.466345 0.421931,-0.466345 0.144345,0 0.310897,0.136943 0.310897,0.414529 0,0.03331 -0.01481,0.05182 -0.05182,0.05182 z m 0.988207,0.625494 c -0.12954,0.140644 -0.303494,0.203564 -0.507057,0.203564 -0.129541,0 -0.303495,-0.04811 -0.403426,-0.210966 -0.06662,-0.103632 -0.08883,-0.251678 -0.08883,-0.470046 h 1.006712 c 0.04071,0 0.06662,-0.02221 0.06662,-0.06292 0,-0.310896 -0.151747,-0.699517 -0.640299,-0.699517 -0.381218,0 -0.758735,0.307196 -0.758735,0.851265 0,0.210965 0.04071,0.41823 0.166551,0.566276 0.125839,0.155448 0.336805,0.244275 0.588483,0.244275 0.266483,0 0.503356,-0.136942 0.644,-0.329402 z"
         style="font-family:'Linux Biolinum O';-inkscape-font-specification:'Linux Biolinum O'"
         id="path3130" />
      <path
         d="m 50.493351,42.316379 c 0,-0.118437 0.0074,-0.255379 0.0074,-0.373816 0,-0.38492 -0.125839,-0.584782 -0.458942,-0.584782 -0.140644,0 -0.403426,0.05552 -0.640299,0.333104 l -0.0074,-0.0111 v -0.270184 c -0.0037,-0.02591 -0.0074,-0.03701 -0.02221,-0.03701 -0.08513,0.01851 -0.218368,0.02221 -0.299794,0.0111 l -0.0074,0.0111 c 0.02591,0.16285 0.03331,0.440436 0.03331,0.718023 v 0.203563 c 0,0.277586 -0.0037,0.466345 -0.03331,0.666207 l 0.0074,0.0111 c 0.04441,-0.0074 0.129541,-0.0111 0.173954,-0.0111 0.04441,0 0.129541,0.0037 0.173955,0.0111 l 0.0074,-0.0111 c -0.02961,-0.210966 -0.03331,-0.38492 -0.03331,-0.666207 v -0.433035 c 0.188759,-0.222069 0.403426,-0.303494 0.536667,-0.303494 0.188759,0 0.266483,0.07402 0.266483,0.373816 v 0.362713 c 0,0.277586 -0.0074,0.470046 -0.03331,0.666207 l 0.0074,0.0111 c 0.04441,-0.0074 0.12954,-0.0111 0.173954,-0.0111 0.04441,0 0.12954,0.0037 0.173954,0.0111 l 0.0074,-0.0111 c -0.02961,-0.210966 -0.03331,-0.38492 -0.03331,-0.666207 z"
         style="font-family:'Linux Biolinum O';-inkscape-font-specification:'Linux Biolinum O'"
         id="path3132" />
      <path
         d="m 52.121856,42.564356 c -0.136943,0.173954 -0.307195,0.262782 -0.455241,0.262782 -0.199863,0 -0.370115,-0.199862 -0.370115,-0.662506 0,-0.555173 0.29239,-0.658805 0.473747,-0.658805 0.173954,0 0.262781,0.07402 0.351609,0.214667 z m 0,0.203563 h 0.0074 l 0.01851,0.214667 c 0,0.0074 0.0111,0.0111 0.03331,0.0111 0.04811,-0.0037 0.07402,-0.0111 0.125839,-0.0111 0.04811,0 0.118437,0.0037 0.166552,0.0111 l 0.0074,-0.0111 c -0.02961,-0.15915 -0.06292,-0.433035 -0.06292,-0.710621 v -1.139954 c 0,-0.273885 0.0148,-0.466345 0.03331,-0.695816 0,-0.02591 -0.0111,-0.03701 -0.03331,-0.03701 -0.09623,0.03701 -0.173954,0.06292 -0.322,0.07402 l -0.0074,0.0111 c 0.02591,0.159149 0.03331,0.433034 0.03331,0.714322 v 0.240574 c -0.08513,-0.04811 -0.236874,-0.08142 -0.310897,-0.08142 -0.48485,0 -0.83646,0.333104 -0.83646,0.83646 0,0.455241 0.270184,0.825356 0.669909,0.825356 0.177655,0 0.344207,-0.07772 0.477448,-0.251678 z"
         style="font-family:'Linux Biolinum O';-inkscape-font-specification:'Linux Biolinum O'"
         id="path3134" />
      <path
         d="m 53.209996,41.972172 c 0.06292,-0.38492 0.303495,-0.466345 0.421931,-0.466345 0.144345,0 0.310897,0.136943 0.310897,0.414529 0,0.03331 -0.01481,0.05182 -0.05182,0.05182 z m 0.988207,0.625494 c -0.12954,0.140644 -0.303494,0.203564 -0.507057,0.203564 -0.12954,0 -0.303494,-0.04811 -0.403426,-0.210966 -0.06662,-0.103632 -0.08883,-0.251678 -0.08883,-0.470046 h 1.006713 c 0.04071,0 0.06662,-0.02221 0.06662,-0.06292 0,-0.310896 -0.151747,-0.699517 -0.640299,-0.699517 -0.381218,0 -0.758735,0.307196 -0.758735,0.851265 0,0.210965 0.04071,0.41823 0.166551,0.566276 0.12584,0.155448 0.336805,0.244275 0.588483,0.244275 0.266483,0 0.503357,-0.136942 0.644,-0.329402 z"
         style="font-family:'Linux Biolinum O';-inkscape-font-specification:'Linux Biolinum O'"
         id="path3136" />
      <path
         d="m 56.126499,42.316379 c 0,-0.118437 0.0074,-0.255379 0.0074,-0.373816 0,-0.38492 -0.125839,-0.584782 -0.458942,-0.584782 -0.140644,0 -0.403425,0.05552 -0.640299,0.333104 l -0.0074,-0.0111 v -0.270184 c -0.0037,-0.02591 -0.0074,-0.03701 -0.02221,-0.03701 -0.08513,0.01851 -0.218368,0.02221 -0.299793,0.0111 l -0.0074,0.0111 c 0.02591,0.16285 0.03331,0.440436 0.03331,0.718023 v 0.203563 c 0,0.277586 -0.0037,0.466345 -0.03331,0.666207 l 0.0074,0.0111 c 0.04441,-0.0074 0.12954,-0.0111 0.173954,-0.0111 0.04441,0 0.12954,0.0037 0.173954,0.0111 l 0.0074,-0.0111 c -0.02961,-0.210966 -0.03331,-0.38492 -0.03331,-0.666207 v -0.433035 c 0.188758,-0.222069 0.403425,-0.303494 0.536666,-0.303494 0.188759,0 0.266483,0.07402 0.266483,0.373816 v 0.362713 c 0,0.277586 -0.0074,0.470046 -0.03331,0.666207 l 0.0074,0.0111 c 0.04441,-0.0074 0.12954,-0.0111 0.173954,-0.0111 0.04441,0 0.12954,0.0037 0.173954,0.0111 l 0.0074,-0.0111 c -0.02961,-0.210966 -0.03331,-0.38492 -0.03331,-0.666207 z"
         style="font-family:'Linux Biolinum O';-inkscape-font-specification:'Linux Biolinum O'"
         id="path3138" />
      <path
         d="m 57.344176,41.505827 c 0.140643,0 0.270184,0.107333 0.370115,0.273885 l 0.04811,-0.0037 0.08513,-0.303494 -0.0074,-0.0111 c -0.114736,-0.05922 -0.307196,-0.103632 -0.492253,-0.103632 -0.38492,0 -0.788345,0.314598 -0.788345,0.817954 0,0.518161 0.292391,0.843862 0.743931,0.843862 0.222069,0 0.396023,-0.07402 0.544069,-0.262781 l -0.07032,-0.07772 h -0.0148 c -0.140644,0.125839 -0.259081,0.155448 -0.396024,0.155448 -0.270183,0 -0.481149,-0.244276 -0.481149,-0.677311 0,-0.407126 0.214667,-0.651402 0.458943,-0.651402 z"
         style="font-family:'Linux Biolinum O';-inkscape-font-specification:'Linux Biolinum O'"
         id="path3140" />
      <path
         d="m 58.110317,41.383689 c 0.144345,0.329402 0.584782,1.284299 0.718024,1.635908 -0.118437,0.277587 -0.270184,0.562575 -0.436736,0.840161 0.03701,-0.0111 0.09253,-0.0185 0.12954,-0.0185 0.03701,0 0.144345,0.0074 0.181356,0.0185 0.140644,-0.462643 0.951196,-2.228092 1.073334,-2.476069 -0.03701,0.0111 -0.122138,0.0111 -0.15915,0.0111 -0.03701,0 -0.107333,0 -0.144344,-0.0111 -0.133242,0.41823 -0.307196,0.891977 -0.488552,1.276897 h -0.0074 c -0.181357,-0.440437 -0.355311,-0.851265 -0.492253,-1.276897 -0.04811,0.0111 -0.129541,0.0111 -0.181357,0.0111 -0.04811,0 -0.140643,0 -0.19246,-0.0111 z"
         style="font-family:'Linux Biolinum O';-inkscape-font-specification:'Linux Biolinum O'"
         id="path3142" />
      <path
         d="m 62.58871,41.598356 v 0.67731 c 0,0.210966 -0.0074,0.407127 -0.02961,0.555173 l 0.0037,0.0111 c 0,0 0.107334,-0.0111 0.203564,-0.0111 0.09623,0 0.199862,0.0111 0.199862,0.0111 l 0.0074,-0.0111 c -0.02221,-0.155449 -0.02961,-0.344207 -0.02961,-0.555173 v -0.67731 c 0,-0.210966 0.0074,-0.410828 0.02961,-0.555173 l -0.0037,-0.0111 c 0,0 -0.107333,0.0111 -0.203563,0.0111 -0.09623,0 -0.199862,-0.0111 -0.199862,-0.0111 l -0.0074,0.0111 c 0.02221,0.155449 0.02961,0.344207 0.02961,0.555173 z M 61.726342,40.32516 H 63.8434 c 0.222069,0 0.307196,0.122138 0.307196,0.344207 v 2.50938 c 0,0.222069 -0.08513,0.307195 -0.307196,0.307195 h -2.117058 c -0.222068,0 -0.344206,-0.08513 -0.344206,-0.307195 v -2.50938 c 0,-0.222069 0.122138,-0.344207 0.344206,-0.344207 z m 2.779564,2.968323 v -2.624116 c 0,-0.333103 -0.218368,-0.477448 -0.551471,-0.477448 h -2.228093 c -0.299793,0 -0.477448,0.170253 -0.477448,0.477448 v 2.624116 c 0,0.333103 0.144345,0.473747 0.477448,0.473747 h 2.339127 c 0.333104,0 0.440437,-0.140644 0.440437,-0.473747 z"
         style="font-family:'Linux Biolinum Keyboard O';-inkscape-font-specification:'Linux Biolinum Keyboard O'"
         id="path3144" />
      <path
         d="m 66.578551,42.316379 c 0,-0.118437 0.0074,-0.255379 0.0074,-0.373816 0,-0.38492 -0.125839,-0.584782 -0.458943,-0.584782 -0.140644,0 -0.403425,0.05552 -0.640299,0.333104 l -0.0074,-0.0111 v -0.270184 c -0.0037,-0.02591 -0.0074,-0.03701 -0.02221,-0.03701 -0.08513,0.01851 -0.218368,0.02221 -0.299793,0.0111 l -0.0074,0.0111 c 0.02591,0.16285 0.03331,0.440436 0.03331,0.718023 v 0.203563 c 0,0.277586 -0.0037,0.466345 -0.03331,0.666207 l 0.0074,0.0111 c 0.04441,-0.0074 0.12954,-0.0111 0.173954,-0.0111 0.04441,0 0.12954,0.0037 0.173954,0.0111 l 0.0074,-0.0111 c -0.02961,-0.210966 -0.03331,-0.38492 -0.03331,-0.666207 v -0.433035 c 0.188758,-0.222069 0.403425,-0.303494 0.536667,-0.303494 0.188758,0 0.266482,0.07402 0.266482,0.373816 v 0.362713 c 0,0.277586 -0.0074,0.470046 -0.03331,0.666207 l 0.0074,0.0111 c 0.04441,-0.0074 0.129541,-0.0111 0.173954,-0.0111 0.04441,0 0.129541,0.0037 0.173954,0.0111 l 0.0074,-0.0111 c -0.02961,-0.210966 -0.03331,-0.38492 -0.03331,-0.666207 z"
         style="font-family:'Linux Biolinum O';-inkscape-font-specification:'Linux Biolinum O'"
         id="path3146" />
      <path
         d="m 67.204045,40.772999 c 0,0.09993 0.08883,0.188759 0.188758,0.188759 0.09993,0 0.188759,-0.08883 0.188759,-0.188759 0,-0.09993 -0.08883,-0.188758 -0.188759,-0.188758 -0.09993,0 -0.188758,0.08883 -0.188758,0.188758 z m 0.340505,1.280598 c 0,-0.277586 0.0074,-0.410827 0.03331,-0.636598 0,-0.03331 -0.0074,-0.03701 -0.03331,-0.03701 -0.08513,0.0111 -0.244275,0.0111 -0.322,0.0037 l -0.0074,0.0111 c 0.02221,0.159149 0.03331,0.440436 0.03331,0.718023 v 0.51446 c 0,0.507057 -0.02591,0.932689 -0.233172,0.932689 -0.107333,0 -0.181356,-0.09253 -0.222069,-0.166551 l -0.05922,0.0148 c 0,0.09993 0,0.273885 -0.0148,0.329402 l 0.0037,0.0111 c 0.02961,0.01851 0.08883,0.03331 0.15915,0.03331 0.233172,0 0.396023,-0.136942 0.499655,-0.299793 0.111034,-0.177655 0.16285,-0.388621 0.16285,-0.943793 z"
         style="font-family:'Linux Biolinum O';-inkscape-font-specification:'Linux Biolinum O'"
         id="path3148" />
      <path
         d="m 68.340295,41.972172 c 0.06292,-0.38492 0.303494,-0.466345 0.421931,-0.466345 0.144345,0 0.310897,0.136943 0.310897,0.414529 0,0.03331 -0.0148,0.05182 -0.05182,0.05182 z m 0.988207,0.625494 c -0.12954,0.140644 -0.303494,0.203564 -0.507058,0.203564 -0.12954,0 -0.303494,-0.04811 -0.403425,-0.210966 -0.06662,-0.103632 -0.08883,-0.251678 -0.08883,-0.470046 h 1.006712 c 0.04071,0 0.06662,-0.02221 0.06662,-0.06292 0,-0.310896 -0.151747,-0.699517 -0.640299,-0.699517 -0.381218,0 -0.758736,0.307196 -0.758736,0.851265 0,0.210965 0.04071,0.41823 0.166552,0.566276 0.125839,0.155448 0.336805,0.244275 0.588483,0.244275 0.266483,0 0.503356,-0.136942 0.644,-0.329402 z"
         style="font-family:'Linux Biolinum O';-inkscape-font-specification:'Linux Biolinum O'"
         id="path3150" />
      <path
         d="m 70.505465,41.505827 c 0.140643,0 0.270184,0.107333 0.370115,0.273885 l 0.04811,-0.0037 0.08513,-0.303494 -0.0074,-0.0111 c -0.114736,-0.05922 -0.307196,-0.103632 -0.492253,-0.103632 -0.38492,0 -0.788345,0.314598 -0.788345,0.817954 0,0.518161 0.292391,0.843862 0.743931,0.843862 0.222069,0 0.396023,-0.07402 0.544069,-0.262781 l -0.07032,-0.07772 h -0.0148 c -0.140644,0.125839 -0.259081,0.155448 -0.396023,0.155448 -0.270184,0 -0.48115,-0.244276 -0.48115,-0.677311 0,-0.407126 0.214667,-0.651402 0.458943,-0.651402 z"
         style="font-family:'Linux Biolinum O';-inkscape-font-specification:'Linux Biolinum O'"
         id="path3152" />
      <path
         d="m 71.519582,41.394793 c -0.07772,0 -0.155448,0 -0.199862,-0.0074 -0.02591,0.06292 -0.04812,0.09623 -0.08143,0.151747 l 0.01851,0.02591 c 0.06292,-0.0037 0.177655,-0.0037 0.262782,-0.0074 v 0.507058 c 0,0.222069 -0.0111,0.488552 -0.0111,0.599586 0,0.240575 0.155449,0.35531 0.325702,0.35531 0.155448,0 0.273885,-0.03701 0.429333,-0.136942 l -0.04812,-0.08883 c -0.111035,0.03701 -0.196161,0.04071 -0.28869,0.02591 -0.08883,-0.0111 -0.122138,-0.09993 -0.122138,-0.303494 0,-0.111034 0.0111,-0.270184 0.0111,-0.492253 v -0.466345 h 0.140644 c 0.08883,0 0.214666,0.0037 0.266482,0.0074 0.0111,-0.05922 0.02221,-0.09623 0.04441,-0.151747 l -0.01851,-0.02591 c -0.06662,0.0037 -0.173954,0.0074 -0.25908,0.0074 h -0.173954 c 0,-0.273886 0,-0.325702 0.01851,-0.540368 0,-0.02591 -0.0111,-0.03701 -0.03331,-0.03701 -0.09623,0.03701 -0.140643,0.07772 -0.25908,0.09253 l -0.0074,0.0111 c -0.0074,0.129541 -0.0148,0.259081 -0.0148,0.473748 z"
         style="font-family:'Linux Biolinum O';-inkscape-font-specification:'Linux Biolinum O'"
         id="path3154" />
      <path
         d="m 72.722457,40.772999 c 0,0.09993 0.08883,0.188759 0.188759,0.188759 0.09993,0 0.188758,-0.08883 0.188758,-0.188759 0,-0.09993 -0.08883,-0.188758 -0.188758,-0.188758 -0.09993,0 -0.188759,0.08883 -0.188759,0.188758 z m 0.03701,1.339817 v 0.203563 c 0,0.277586 -0.0074,0.466345 -0.03331,0.666207 l 0.0074,0.0111 c 0.04441,-0.0074 0.129541,-0.0111 0.173954,-0.0111 0.04441,0 0.129541,0.0037 0.173954,0.0111 l 0.0074,-0.0111 c -0.02961,-0.207264 -0.03331,-0.38492 -0.03331,-0.666207 v -0.262782 c 0,-0.277586 0.0074,-0.410827 0.03331,-0.636598 0,-0.03331 -0.0074,-0.03701 -0.03331,-0.03701 -0.08513,0.0111 -0.244276,0.0111 -0.322,0.0037 l -0.0074,0.0111 c 0.02221,0.159149 0.03331,0.440436 0.03331,0.718023 z"
         style="font-family:'Linux Biolinum O';-inkscape-font-specification:'Linux Biolinum O'"
         id="path3156" />
      <path
         d="m 73.529308,42.22385 c 0,0.444138 0.292391,0.795747 0.784644,0.795747 0.488552,0 0.784644,-0.344207 0.784644,-0.829057 0,-0.503357 -0.270184,-0.832759 -0.76984,-0.832759 -0.48485,0 -0.799448,0.340506 -0.799448,0.866069 z m 0.77354,-0.718023 c 0.392322,0 0.470046,0.303494 0.470046,0.751334 0,0.35531 -0.177655,0.61439 -0.425632,0.61439 -0.392322,0 -0.492253,-0.425632 -0.492253,-0.71062 0,-0.322 0.09993,-0.655104 0.447839,-0.655104 z"
         style="font-family:'Linux Biolinum O';-inkscape-font-specification:'Linux Biolinum O'"
         id="path3158" />
      <path
         d="m 76.941768,42.316379 c 0,-0.118437 0.0074,-0.255379 0.0074,-0.373816 0,-0.38492 -0.125839,-0.584782 -0.458943,-0.584782 -0.140643,0 -0.403425,0.05552 -0.640299,0.333104 l -0.0074,-0.0111 v -0.270184 c -0.0037,-0.02591 -0.0074,-0.03701 -0.02221,-0.03701 -0.08513,0.01851 -0.218368,0.02221 -0.299793,0.0111 l -0.0074,0.0111 c 0.02591,0.16285 0.03331,0.440436 0.03331,0.718023 v 0.203563 c 0,0.277586 -0.0037,0.466345 -0.03331,0.666207 l 0.0074,0.0111 c 0.04441,-0.0074 0.12954,-0.0111 0.173954,-0.0111 0.04441,0 0.12954,0.0037 0.173954,0.0111 l 0.0074,-0.0111 c -0.02961,-0.210966 -0.03331,-0.38492 -0.03331,-0.666207 v -0.433035 c 0.188759,-0.222069 0.403426,-0.303494 0.536667,-0.303494 0.188759,0 0.266483,0.07402 0.266483,0.373816 v 0.362713 c 0,0.277586 -0.0074,0.470046 -0.03331,0.666207 l 0.0074,0.0111 c 0.04441,-0.0074 0.12954,-0.0111 0.173954,-0.0111 0.04441,0 0.12954,0.0037 0.173954,0.0111 l 0.0074,-0.0111 c -0.02961,-0.210966 -0.03331,-0.38492 -0.03331,-0.666207 z"
         style="font-family:'Linux Biolinum O';-inkscape-font-specification:'Linux Biolinum O'"
         id="path3160" />
      <path
         d="m 78.525861,41.394793 c -0.08143,0 -0.166552,0 -0.214667,-0.0074 -0.02591,0.06292 -0.04811,0.09623 -0.08142,0.151747 l 0.0185,0.02591 c 0.06662,-0.0037 0.188759,-0.0074 0.273885,-0.0074 h 0.0037 v 0.688414 c 0,0.277586 -0.0074,0.540368 -0.03701,0.736529 l 0.0074,0.0111 c 0.04441,-0.0074 0.133242,-0.0111 0.177656,-0.0111 0.04441,0 0.133241,0.0037 0.177655,0.0111 l 0.0074,-0.0111 c -0.03331,-0.210966 -0.03701,-0.458943 -0.03701,-0.736529 v -0.688414 h 0.125839 c 0.08883,0 0.214666,0.0037 0.266482,0.0074 0.0111,-0.05922 0.02221,-0.09623 0.04441,-0.151747 l -0.01851,-0.02591 c -0.06292,0.0037 -0.173954,0.0074 -0.25908,0.0074 h -0.159149 v -0.03331 c 0,-0.133241 -0.01851,-0.325701 -0.01851,-0.392322 0,-0.203563 0.12954,-0.344207 0.344207,-0.344207 0.09253,0 0.173954,0.05552 0.214666,0.129541 l 0.04071,-0.0037 c 0.02591,-0.09993 0.06292,-0.222069 0.103632,-0.303494 l -0.0037,-0.0111 c -0.02961,-0.01851 -0.09623,-0.03701 -0.166552,-0.03701 -0.233172,0 -0.470046,0.111035 -0.606988,0.284989 -0.140644,0.177655 -0.203563,0.351609 -0.203563,0.566276 z"
         style="font-family:'Linux Biolinum O';-inkscape-font-specification:'Linux Biolinum O'"
         id="path3162" />
      <path
         d="m 79.462246,42.22385 c 0,0.444138 0.29239,0.795747 0.784643,0.795747 0.488552,0 0.784644,-0.344207 0.784644,-0.829057 0,-0.503357 -0.270184,-0.832759 -0.769839,-0.832759 -0.484851,0 -0.799448,0.340506 -0.799448,0.866069 z m 0.77354,-0.718023 c 0.392322,0 0.470046,0.303494 0.470046,0.751334 0,0.35531 -0.177655,0.61439 -0.425632,0.61439 -0.392322,0 -0.492253,-0.425632 -0.492253,-0.71062 0,-0.322 0.09993,-0.655104 0.447839,-0.655104 z"
         style="font-family:'Linux Biolinum O';-inkscape-font-specification:'Linux Biolinum O'"
         id="path3164" />
      <path
         d="m 81.790268,41.746402 v -0.336805 c 0,-0.02591 -0.0074,-0.03701 -0.02221,-0.03701 -0.08513,0.01851 -0.218368,0.02221 -0.299794,0.0111 l -0.0074,0.0111 c 0.02591,0.16285 0.03331,0.440436 0.03331,0.718023 v 0.203563 c 0,0.277586 -0.0074,0.470046 -0.03331,0.666207 l 0.0074,0.0111 c 0.04441,-0.0074 0.129541,-0.0111 0.173954,-0.0111 0.04441,0 0.129541,0.0037 0.173954,0.0111 l 0.0074,-0.0111 c -0.02961,-0.210966 -0.03331,-0.38492 -0.03331,-0.666207 v -0.19246 c 0,-0.155448 0.04441,-0.244276 0.125839,-0.366414 0.05182,-0.08143 0.136943,-0.12954 0.207265,-0.12954 0.07402,0 0.144345,0.0074 0.19246,0.05182 l 0.02961,-0.0074 0.07402,-0.273885 -0.01481,-0.01481 c -0.06292,-0.01851 -0.06662,-0.02591 -0.133241,-0.02591 -0.199862,0 -0.307196,0.114736 -0.470046,0.396023 z"
         style="font-family:'Linux Biolinum O';-inkscape-font-specification:'Linux Biolinum O'"
         id="path3166" />
      <path
         d="m 84.55873,42.149827 -0.0148,0.440437 c 0,0.04812 -0.02221,0.07402 -0.05182,0.09623 -0.103632,0.07772 -0.229471,0.144345 -0.340506,0.144345 -0.166552,0 -0.273885,-0.111035 -0.273885,-0.22577 0,-0.166552 0.07772,-0.292391 0.366414,-0.370115 z m 0,0.655104 c 0.04071,0.148046 0.151747,0.214666 0.288689,0.214666 0.09253,0 0.207265,-0.02221 0.292391,-0.114735 l -0.02591,-0.08883 c -0.04071,0.0148 -0.07402,0.01851 -0.09993,0.01851 -0.03701,0 -0.08513,-0.0074 -0.111034,-0.02961 -0.03701,-0.03331 -0.05922,-0.122138 -0.05922,-0.28869 0,-0.107333 0.0111,-0.518161 0.0111,-0.558874 0,-0.499655 -0.329403,-0.599586 -0.61069,-0.599586 -0.281288,0 -0.45154,0.136943 -0.544069,0.214667 l -0.0111,0.0148 0.06292,0.247977 0.04811,0.0037 c 0.103632,-0.166552 0.229471,-0.314598 0.407126,-0.314598 0.133242,0 0.355311,0.01851 0.355311,0.436736 0,0.02591 -0.01481,0.04071 -0.02591,0.04441 l -0.344207,0.07772 c -0.377518,0.08513 -0.614391,0.284989 -0.614391,0.536667 0,0.273885 0.188759,0.399724 0.462644,0.399724 0.203563,0 0.307195,-0.04811 0.503356,-0.214666 z"
         style="font-family:'Linux Biolinum O';-inkscape-font-specification:'Linux Biolinum O'"
         id="path3168" />
      <path
         d="m 86.894156,42.316379 c 0,-0.118437 0.0074,-0.255379 0.0074,-0.373816 0,-0.38492 -0.125839,-0.584782 -0.458943,-0.584782 -0.140644,0 -0.403425,0.05552 -0.640299,0.333104 l -0.0074,-0.0111 v -0.270184 c -0.0037,-0.02591 -0.0074,-0.03701 -0.02221,-0.03701 -0.08513,0.01851 -0.218368,0.02221 -0.299793,0.0111 l -0.0074,0.0111 c 0.02591,0.16285 0.03331,0.440436 0.03331,0.718023 v 0.203563 c 0,0.277586 -0.0037,0.466345 -0.03331,0.666207 l 0.0074,0.0111 c 0.04441,-0.0074 0.12954,-0.0111 0.173954,-0.0111 0.04441,0 0.12954,0.0037 0.173954,0.0111 l 0.0074,-0.0111 c -0.02961,-0.210966 -0.03331,-0.38492 -0.03331,-0.666207 v -0.433035 c 0.188759,-0.222069 0.403425,-0.303494 0.536667,-0.303494 0.188758,0 0.266482,0.07402 0.266482,0.373816 v 0.362713 c 0,0.277586 -0.0074,0.470046 -0.03331,0.666207 l 0.0074,0.0111 c 0.04441,-0.0074 0.129541,-0.0111 0.173954,-0.0111 0.04441,0 0.129541,0.0037 0.173955,0.0111 l 0.0074,-0.0111 c -0.02961,-0.210966 -0.03331,-0.38492 -0.03331,-0.666207 z"
         style="font-family:'Linux Biolinum O';-inkscape-font-specification:'Linux Biolinum O'"
         id="path3170" />
      <path
         d="m 87.290179,41.383689 c 0.144344,0.329402 0.584781,1.284299 0.718023,1.635908 -0.118437,0.277587 -0.270184,0.562575 -0.436736,0.840161 0.03701,-0.0111 0.09253,-0.0185 0.12954,-0.0185 0.03701,0 0.144345,0.0074 0.181357,0.0185 0.140643,-0.462643 0.951195,-2.228092 1.073333,-2.476069 -0.03701,0.0111 -0.122138,0.0111 -0.159149,0.0111 -0.03701,0 -0.107334,0 -0.144345,-0.0111 -0.133242,0.41823 -0.307196,0.891977 -0.488552,1.276897 h -0.0074 c -0.181357,-0.440437 -0.355311,-0.851265 -0.492253,-1.276897 -0.04811,0.0111 -0.129541,0.0111 -0.181357,0.0111 -0.04811,0 -0.140643,0 -0.192459,-0.0111 z"
         style="font-family:'Linux Biolinum O';-inkscape-font-specification:'Linux Biolinum O'"
         id="path3172" />
      <path
         d="m 90.50278,42.630977 c 0,0.325701 -0.01851,0.766138 -0.310896,0.766138 -0.107334,0 -0.173955,-0.05552 -0.214667,-0.129541 l -0.04071,0.0037 c -0.02591,0.09993 -0.06292,0.233172 -0.103632,0.303494 l 0.0037,0.0111 c 0.02961,0.01851 0.09623,0.03331 0.166552,0.03331 0.233172,0 0.429333,-0.08143 0.584782,-0.281288 0.196161,-0.255379 0.233172,-0.362712 0.233172,-0.788345 v -1.213977 c 0,-0.277586 0.0074,-0.544069 0.03701,-0.74023 l -0.0037,-0.0111 c -0.04441,0.0074 -0.148046,0.0111 -0.192459,0.0111 -0.04441,0 -0.144345,-0.0037 -0.188759,-0.0111 l -0.0074,0.0111 c 0.02961,0.210966 0.03701,0.462644 0.03701,0.74023 z"
         style="font-family:'Linux Biolinum O';-inkscape-font-specification:'Linux Biolinum O'"
         id="path3174" />
      <path
         d="m 92.064662,42.856747 c -0.207265,0 -0.473747,-0.181357 -0.588483,-0.399724 l -0.03701,0.0037 c -0.0148,0.133241 -0.05552,0.270184 -0.08513,0.381218 l 0.0074,0.0111 c 0,0 0.240575,0.166551 0.67361,0.166551 0.455241,0 0.80685,-0.277586 0.80685,-0.706919 0,-0.429334 -0.366414,-0.625495 -0.662506,-0.74023 -0.188758,-0.07032 -0.45154,-0.177655 -0.45154,-0.484851 0,-0.133241 0.07402,-0.281287 0.170253,-0.333103 0.06292,-0.03331 0.140644,-0.04441 0.22577,-0.04441 0.203563,0 0.403425,0.159149 0.503357,0.388621 l 0.03701,-0.0037 c 0.0148,-0.133241 0.05182,-0.25908 0.08513,-0.370115 l -0.0074,-0.0111 c 0,0 -0.155448,-0.166552 -0.588483,-0.166552 -0.09993,0 -0.210965,0.01851 -0.318299,0.06292 -0.218367,0.09253 -0.407126,0.307195 -0.407126,0.577379 0,0.388621 0.329402,0.569977 0.636598,0.699518 0.240574,0.09993 0.433034,0.222069 0.433034,0.536666 0,0.277587 -0.214666,0.433035 -0.433034,0.433035 z"
         style="font-family:'Linux Biolinum O';-inkscape-font-specification:'Linux Biolinum O'"
         id="path3176" />
      <path
         d="m 94.566643,41.894448 c 0.08142,-0.196161 0.299793,-0.366414 0.444138,-0.366414 0.251678,0 0.381218,0.229471 0.381218,0.647701 0,0.303495 -0.08513,0.695816 -0.481149,0.695816 -0.05922,0 -0.214667,-0.0148 -0.344207,-0.166551 z m 0,-0.214667 v -0.270184 c 0,-0.02591 -0.0074,-0.03701 -0.02221,-0.03701 -0.08513,0.01851 -0.218368,0.02221 -0.299793,0.0111 l -0.0074,0.0111 c 0.02591,0.16285 0.03331,0.440436 0.03331,0.718023 v 0.988207 c 0,0.277586 -0.0074,0.544069 -0.03331,0.74023 l 0.0074,0.0111 c 0.04441,-0.0074 0.12954,-0.0111 0.173954,-0.0111 0.04441,0 0.12954,0.0037 0.173954,0.0111 l 0.0074,-0.0111 c -0.02961,-0.210966 -0.03331,-0.458943 -0.03331,-0.74023 v -0.162851 c 0.09623,0.05182 0.233172,0.08142 0.366413,0.08142 0.488552,0 0.784644,-0.370115 0.784644,-0.891977 0,-0.392322 -0.229471,-0.769839 -0.644,-0.769839 -0.144345,0 -0.329402,0.07402 -0.499655,0.333104 z"
         style="font-family:'Linux Biolinum O';-inkscape-font-specification:'Linux Biolinum O'"
         id="path3178" />
      <path
         d="m 96.520852,41.746402 v -0.336805 c 0,-0.02591 -0.0074,-0.03701 -0.02221,-0.03701 -0.08513,0.01851 -0.218368,0.02221 -0.299793,0.0111 l -0.0074,0.0111 c 0.02591,0.16285 0.03331,0.440436 0.03331,0.718023 v 0.203563 c 0,0.277586 -0.0074,0.470046 -0.03331,0.666207 l 0.0074,0.0111 c 0.04441,-0.0074 0.12954,-0.0111 0.173954,-0.0111 0.04441,0 0.12954,0.0037 0.173954,0.0111 l 0.0074,-0.0111 c -0.02961,-0.210966 -0.03331,-0.38492 -0.03331,-0.666207 v -0.19246 c 0,-0.155448 0.04441,-0.244276 0.125839,-0.366414 0.05182,-0.08143 0.136942,-0.12954 0.207264,-0.12954 0.07402,0 0.144345,0.0074 0.19246,0.05182 l 0.02961,-0.0074 0.07402,-0.273885 -0.0148,-0.01481 c -0.06292,-0.01851 -0.06662,-0.02591 -0.133241,-0.02591 -0.199862,0 -0.307195,0.114736 -0.470046,0.396023 z"
         style="font-family:'Linux Biolinum O';-inkscape-font-specification:'Linux Biolinum O'"
         id="path3180" />
      <path
         d="m 97.327705,42.22385 c 0,0.444138 0.292391,0.795747 0.784644,0.795747 0.488552,0 0.784644,-0.344207 0.784644,-0.829057 0,-0.503357 -0.270184,-0.832759 -0.76984,-0.832759 -0.48485,0 -0.799448,0.340506 -0.799448,0.866069 z m 0.77354,-0.718023 c 0.392322,0 0.470046,0.303494 0.470046,0.751334 0,0.35531 -0.177655,0.61439 -0.425632,0.61439 -0.392322,0 -0.492253,-0.425632 -0.492253,-0.71062 0,-0.322 0.09993,-0.655104 0.447839,-0.655104 z"
         style="font-family:'Linux Biolinum O';-inkscape-font-specification:'Linux Biolinum O'"
         id="path3182" />
      <path
         d="m 99.370739,40.772999 c 0,0.09993 0.08883,0.188759 0.188759,0.188759 0.09993,0 0.188759,-0.08883 0.188759,-0.188759 0,-0.09993 -0.08883,-0.188758 -0.188759,-0.188758 -0.09993,0 -0.188759,0.08883 -0.188759,0.188758 z m 0.340506,1.280598 c 0,-0.277586 0.0074,-0.410827 0.03331,-0.636598 0,-0.03331 -0.0074,-0.03701 -0.03331,-0.03701 -0.08513,0.0111 -0.244276,0.0111 -0.322,0.0037 l -0.0074,0.0111 c 0.02221,0.159149 0.03331,0.440436 0.03331,0.718023 v 0.51446 c 0,0.507057 -0.02591,0.932689 -0.233172,0.932689 -0.107334,0 -0.181357,-0.09253 -0.222069,-0.166551 l -0.05922,0.0148 c 0,0.09993 0,0.273885 -0.0148,0.329402 l 0.0037,0.0111 c 0.02961,0.01851 0.08883,0.03331 0.159149,0.03331 0.233173,0 0.396023,-0.136942 0.499655,-0.299793 0.111035,-0.177655 0.162851,-0.388621 0.162851,-0.943793 z"
         style="font-family:'Linux Biolinum O';-inkscape-font-specification:'Linux Biolinum O'"
         id="path3184" />
      <path
         d="m 100.50699,41.972172 c 0.0629,-0.38492 0.30349,-0.466345 0.42193,-0.466345 0.14435,0 0.3109,0.136943 0.3109,0.414529 0,0.03331 -0.0148,0.05182 -0.0518,0.05182 z m 0.98821,0.625494 c -0.12954,0.140644 -0.3035,0.203564 -0.50706,0.203564 -0.12954,0 -0.3035,-0.04811 -0.40343,-0.210966 -0.0666,-0.103632 -0.0888,-0.251678 -0.0888,-0.470046 h 1.00671 c 0.0407,0 0.0666,-0.02221 0.0666,-0.06292 0,-0.310896 -0.15175,-0.699517 -0.6403,-0.699517 -0.38122,0 -0.75874,0.307196 -0.75874,0.851265 0,0.210965 0.0407,0.41823 0.16656,0.566276 0.12584,0.155448 0.3368,0.244275 0.58848,0.244275 0.26648,0 0.50336,-0.136942 0.644,-0.329402 z"
         style="font-family:'Linux Biolinum O';-inkscape-font-specification:'Linux Biolinum O'"
         id="path3186" />
      <path
         d="m 102.67216,41.505827 c 0.14064,0 0.27018,0.107333 0.37011,0.273885 l 0.0481,-0.0037 0.0851,-0.303494 -0.007,-0.0111 c -0.11473,-0.05922 -0.30719,-0.103632 -0.49225,-0.103632 -0.38492,0 -0.78834,0.314598 -0.78834,0.817954 0,0.518161 0.29239,0.843862 0.74393,0.843862 0.22207,0 0.39602,-0.07402 0.54407,-0.262781 l -0.0703,-0.07772 h -0.0148 c -0.14064,0.125839 -0.25908,0.155448 -0.39602,0.155448 -0.27019,0 -0.48115,-0.244276 -0.48115,-0.677311 0,-0.407126 0.21466,-0.651402 0.45894,-0.651402 z"
         style="font-family:'Linux Biolinum O';-inkscape-font-specification:'Linux Biolinum O'"
         id="path3188" />
      <path
         d="m 103.68628,41.394793 c -0.0777,0 -0.15545,0 -0.19987,-0.0074 -0.0259,0.06292 -0.0481,0.09623 -0.0814,0.151747 l 0.0185,0.02591 c 0.0629,-0.0037 0.17766,-0.0037 0.26279,-0.0074 v 0.507058 c 0,0.222069 -0.0111,0.488552 -0.0111,0.599586 0,0.240575 0.15545,0.35531 0.3257,0.35531 0.15545,0 0.27389,-0.03701 0.42934,-0.136942 l -0.0481,-0.08883 c -0.11103,0.03701 -0.19616,0.04071 -0.28869,0.02591 -0.0888,-0.0111 -0.12214,-0.09993 -0.12214,-0.303494 0,-0.111034 0.0111,-0.270184 0.0111,-0.492253 v -0.466345 h 0.14064 c 0.0888,0 0.21467,0.0037 0.26648,0.0074 0.0111,-0.05922 0.0222,-0.09623 0.0444,-0.151747 l -0.0185,-0.02591 c -0.0666,0.0037 -0.17395,0.0074 -0.25908,0.0074 h -0.17395 c 0,-0.273886 0,-0.325702 0.0185,-0.540368 0,-0.02591 -0.0111,-0.03701 -0.0333,-0.03701 -0.0962,0.03701 -0.14064,0.07772 -0.25908,0.09253 l -0.007,0.0111 c -0.007,0.129541 -0.0148,0.259081 -0.0148,0.473748 z"
         style="font-family:'Linux Biolinum O';-inkscape-font-specification:'Linux Biolinum O'"
         id="path3190" />
    </g>
  </g>
</svg>
